<svg xmlns="http://www.w3.org/2000/svg" width="34.64" height="20.362" viewBox="0 0 34.64 20.362">
  <g id="align-to-left" transform="translate(0 -47.252)">
    <g id="Group_368" data-name="Group 368" transform="translate(0 47.252)">
      <g id="Group_369" data-name="Group 369" transform="translate(0 16.603)">
        <path id="Path_767" data-name="Path 767" d="M.257,168.216H6.436q.1,0,.181-.279a2.521,2.521,0,0,0,.076-.661V165.4a2.522,2.522,0,0,0-.076-.661q-.076-.279-.181-.279H.257q-.1,0-.181.279A2.522,2.522,0,0,0,0,165.4v1.88a2.521,2.521,0,0,0,.076.661Q.153,168.216.257,168.216Z" transform="translate(0 -164.456)" fill="#fff"/>
        <path id="Path_771" data-name="Path 771" d="M.257,168.216H6.436q.1,0,.181-.279a2.521,2.521,0,0,0,.076-.661V165.4a2.522,2.522,0,0,0-.076-.661q-.076-.279-.181-.279H.257q-.1,0-.181.279A2.522,2.522,0,0,0,0,165.4v1.88a2.521,2.521,0,0,0,.076.661Q.153,168.216.257,168.216Z" transform="translate(9.093 -164.456)" fill="#fff"/>
        <path id="Path_772" data-name="Path 772" d="M.257,168.216H6.436q.1,0,.181-.279a2.521,2.521,0,0,0,.076-.661V165.4a2.522,2.522,0,0,0-.076-.661q-.076-.279-.181-.279H.257q-.1,0-.181.279A2.522,2.522,0,0,0,0,165.4v1.88a2.521,2.521,0,0,0,.076.661Q.153,168.216.257,168.216Z" transform="translate(18.187 -164.456)" fill="#fff"/>
        <path id="Path_773" data-name="Path 773" d="M.257,168.216H6.436q.1,0,.181-.279a2.521,2.521,0,0,0,.076-.661V165.4a2.522,2.522,0,0,0-.076-.661q-.076-.279-.181-.279H.257q-.1,0-.181.279A2.522,2.522,0,0,0,0,165.4v1.88a2.521,2.521,0,0,0,.076.661Q.153,168.216.257,168.216Z" transform="translate(27.28 -164.456)" fill="#fff"/>
      </g>
      <path id="Path_768" data-name="Path 768" d="M1.7,58.517H32.275a2.465,2.465,0,0,0,1.195-.275q.5-.275.5-.65v-1.85q0-.376-.5-.651a2.466,2.466,0,0,0-1.195-.275H1.7A2.465,2.465,0,0,0,.5,55.092q-.5.275-.5.651v1.85q0,.376.5.65A2.464,2.464,0,0,0,1.7,58.517Z" transform="translate(0 -45.064)" fill="#fff"/>
      <path id="Path_770" data-name="Path 770" d="M1.575,280.385H33.065a1.6,1.6,0,0,0,1.575-1.575v-3.149a1.6,1.6,0,0,0-1.575-1.575H1.575a1.514,1.514,0,0,0-1.107.468A1.514,1.514,0,0,0,0,275.662v3.149a1.513,1.513,0,0,0,.467,1.107A1.514,1.514,0,0,0,1.575,280.385Z" transform="translate(0 -274.087)" fill="#fff"/>
    </g>
  </g>
</svg>
