<?xml version="1.0" encoding="utf-8"?>
<!-- Generator: Adobe Illustrator 24.1.0, SVG Export Plug-In . SVG Version: 6.00 Build 0)  -->
<svg version="1.1" id="Layer_1" xmlns="http://www.w3.org/2000/svg" xmlns:xlink="http://www.w3.org/1999/xlink" x="0px" y="0px"
	 viewBox="0 0 512 512" style="enable-background:new 0 0 512 512;" xml:space="preserve">
<g>
	<polygon points="355.6,342.1 355.6,418.2 422,380.1 422,305.7 	"/>
	<polygon points="343.1,248.7 280.3,285.6 345,322.8 409.1,285.9 	"/>
	<polygon points="268.3,379.8 332.3,418.2 332.3,341.9 268.3,305.7 	"/>
	<polygon points="177.2,418.2 243.7,380.1 243.7,305.7 177.2,342.1 	"/>
	<polygon points="164.8,248.7 102,285.6 166.6,322.8 230.8,285.9 	"/>
	<polygon points="90,379.8 153.9,418.2 153.9,341.9 90,305.7 	"/>
	<polygon points="329.8,152 265.4,187.3 265.4,263.3 328.1,226.2 	"/>
	<polygon points="252.9,93.8 190.2,130.8 254.8,167.9 318.9,131 	"/>
	<polygon points="242.1,187.1 178.1,150.8 178.1,224.9 242.1,263.3 	"/>
</g>
</svg>
