<svg xmlns="http://www.w3.org/2000/svg" xmlns:xlink="http://www.w3.org/1999/xlink" width="18.908" height="18.908" viewBox="0 0 18.908 18.908">
  <defs>
    <linearGradient id="linear-gradient" x1="0.5" x2="0.5" y2="1" gradientUnits="objectBoundingBox">
      <stop offset="0" stop-color="#4886f1"/>
      <stop offset="1" stop-color="#40c1f6"/>
    </linearGradient>
  </defs>
  <path id="cancel" d="M9.454,0a9.454,9.454,0,1,0,9.454,9.454A9.427,9.427,0,0,0,9.454,0Zm1.375,9.626,3.223,3.223a.415.415,0,0,1,0,.6l-.6.6a.464.464,0,0,1-.3.129.39.39,0,0,1-.3-.129L9.626,10.829a.208.208,0,0,0-.3,0L6.1,14.052a.464.464,0,0,1-.3.129.39.39,0,0,1-.3-.129l-.6-.6a.415.415,0,0,1,0-.6L8.122,9.626a.208.208,0,0,0,0-.3L4.9,6.1a.415.415,0,0,1,0-.6l.6-.6a.415.415,0,0,1,.6,0L9.325,8.122a.208.208,0,0,0,.3,0L12.849,4.9a.464.464,0,0,1,.3-.129.39.39,0,0,1,.3.129l.6.6a.415.415,0,0,1,0,.6L10.829,9.325C10.743,9.368,10.743,9.54,10.829,9.626Z" fill="url(#linear-gradient)"/>
</svg>
