<svg xmlns="http://www.w3.org/2000/svg" xmlns:xlink="http://www.w3.org/1999/xlink" width="26.833" height="18.374" viewBox="0 0 26.833 18.374">
  <defs>
    <linearGradient id="linear-gradient" x1="0.5" x2="0.5" y2="1" gradientUnits="objectBoundingBox">
      <stop offset="0" stop-color="#4886f1"/>
      <stop offset="1" stop-color="#40c1f6"/>
    </linearGradient>
  </defs>
  <path id="Clear_all" d="M-2408.415,7.25a6.106,6.106,0,0,1,6.125-6.125,6.107,6.107,0,0,1,6.125,6.125,6.107,6.107,0,0,1-6.125,6.125A6.106,6.106,0,0,1-2408.415,7.25Zm6.235.891,2.088,2.088a.255.255,0,0,0,.2.083.3.3,0,0,0,.195-.083l.39-.391a.3.3,0,0,0,.084-.194.3.3,0,0,0-.084-.2l-2.088-2.087c-.055-.056-.055-.167,0-.2l2.088-2.088a.3.3,0,0,0,.084-.194.3.3,0,0,0-.084-.2l-.39-.39a.252.252,0,0,0-.195-.084.3.3,0,0,0-.2.084l-2.088,2.088a.134.134,0,0,1-.194,0l-2.088-2.088a.3.3,0,0,0-.2-.084.3.3,0,0,0-.194.084l-.39.39a.3.3,0,0,0-.084.2.3.3,0,0,0,.084.194l2.088,2.088a.136.136,0,0,1,0,.2l-2.088,2.087a.3.3,0,0,0-.084.2.3.3,0,0,0,.084.194l.39.391a.255.255,0,0,0,.194.083.3.3,0,0,0,.2-.083l2.088-2.088a.137.137,0,0,1,.1-.042A.137.137,0,0,1-2402.18,8.141ZM-2423,10V7h9.667v3Zm0-6V1h13.667V4Zm0-6V-5h23.666v3Z" transform="translate(2423 5)" fill="url(#linear-gradient)"/>
</svg>
