<?xml version="1.0" encoding="utf-8"?>
<!-- Generator: Adobe Illustrator 24.0.1, SVG Export Plug-In . SVG Version: 6.00 Build 0)  -->
<svg version="1.1" id="Layer_1" xmlns="http://www.w3.org/2000/svg" xmlns:xlink="http://www.w3.org/1999/xlink" x="0px" y="0px"
	 viewBox="0 0 100 100" style="enable-background:new 0 0 100 100;" xml:space="preserve">
<style type="text/css">
	.st0{fill:#1A1A1A;}
	.st1{fill:#00BDFF;}
</style>
<circle class="st0" cx="50.13" cy="38.5" r="25.38"/>
<path class="st0" d="M76.5,38.92h-3c0,6.5-2.63,12.35-6.88,16.62C62.35,59.79,56.5,62.42,50,62.42c-6.5,0-12.35-2.63-16.62-6.88
	c-4.26-4.26-6.88-10.12-6.88-16.62c0-6.5,2.63-12.35,6.88-16.62c4.26-4.26,10.12-6.88,16.62-6.88c6.5,0,12.35,2.63,16.62,6.88
	c4.26,4.26,6.88,10.12,6.88,16.62H76.5h3c0-8.14-3.31-15.53-8.64-20.86C65.53,12.73,58.14,9.42,50,9.42
	c-8.14,0-15.53,3.31-20.86,8.64c-5.33,5.33-8.64,12.72-8.64,20.86c0,8.14,3.31,15.53,8.64,20.86c5.33,5.33,12.72,8.64,20.86,8.64
	c8.14,0,15.53-3.31,20.86-8.64c5.33-5.33,8.64-12.72,8.64-20.86H76.5z"/>
<polygon class="st0" points="50,63.26 60,63.26 50,90.58 40,63.26 "/>
<path class="st1" d="M38.25,52.17h23.5c0-6.08-4.79-11.02-10.79-11.31c4.29-0.48,7.63-4.11,7.63-8.53c0-4.74-3.84-8.58-8.58-8.58
	s-8.58,3.84-8.58,8.58c0,4.42,3.34,8.05,7.63,8.53C43.04,41.15,38.25,46.09,38.25,52.17z"/>
</svg>
