<?xml version="1.0" encoding="utf-8"?>
<!-- Generator: Adobe Illustrator 24.0.1, SVG Export Plug-In . SVG Version: 6.00 Build 0)  -->
<svg version="1.1" id="Layer_1" xmlns="http://www.w3.org/2000/svg" xmlns:xlink="http://www.w3.org/1999/xlink" x="0px" y="0px"
	 viewBox="0 0 208.89 185.44" style="enable-background:new 0 0 208.89 185.44;" xml:space="preserve">
<style type="text/css">
	.st0{fill:url(#SVGID_1_);}
	.st1{fill:url(#SVGID_2_);}
	.st2{fill:url(#SVGID_3_);}
</style>
<linearGradient id="SVGID_1_" gradientUnits="userSpaceOnUse" x1="367.4448" y1="-19" x2="367.4448" y2="186.5">
	<stop  offset="0" style="stop-color:#3270DC"/>
	<stop  offset="1" style="stop-color:#40C1F6"/>
</linearGradient>
<circle class="st0" cx="367.44" cy="75.22" r="46.47"/>
<linearGradient id="SVGID_2_" gradientUnits="userSpaceOnUse" x1="104.4435" y1="-1.5" x2="104.4435" y2="204">
	<stop  offset="0" style="stop-color:#3270DC"/>
	<stop  offset="1" style="stop-color:#40C1F6"/>
</linearGradient>
<path class="st1" d="M104.44,6.22c-47.78,0.01-86.5,38.72-86.5,86.5c0.01,47.78,38.72,86.49,86.5,86.5
	c47.78,0,86.49-38.72,86.5-86.5C190.94,44.94,152.22,6.22,104.44,6.22z M153.76,142.03c-12.65,12.63-30.03,20.42-49.31,20.43
	c-19.29,0-36.67-7.79-49.31-20.43C42.5,129.39,34.71,112,34.7,92.72c0-19.29,7.79-36.67,20.43-49.31
	c12.65-12.63,30.03-20.42,49.31-20.43c19.29,0,36.67,7.79,49.31,20.43c12.63,12.65,20.42,30.03,20.43,49.31
	C174.18,112,166.39,129.39,153.76,142.03z"/>
<linearGradient id="SVGID_3_" gradientUnits="userSpaceOnUse" x1="90.125" y1="-4.9763" x2="90.125" y2="213.3525">
	<stop  offset="0" style="stop-color:#3270DC"/>
	<stop  offset="1" style="stop-color:#40C1F6"/>
</linearGradient>
<polygon class="st2" points="49.75,108 130.5,45.75 126.75,144.5 99.5,104 "/>
</svg>
