<?xml version="1.0" encoding="utf-8"?>
<!-- Generator: Adobe Illustrator 24.0.0, SVG Export Plug-In . SVG Version: 6.00 Build 0)  -->
<svg version="1.1" id="Layer_1" xmlns="http://www.w3.org/2000/svg" xmlns:xlink="http://www.w3.org/1999/xlink" x="0px" y="0px"
	 viewBox="0 0 69.9 69.9" style="enable-background:new 0 0 69.9 69.9;" xml:space="preserve">
<style type="text/css">
	.st0{fill:url(#Ellipse_51-2_1_);}
	.st1{fill:none;}
	.st2{fill:#FFFFFF;}
</style>
<linearGradient id="Ellipse_51-2_1_" gradientUnits="userSpaceOnUse" x1="-454.5338" y1="527.4547" x2="-455.5338" y2="526.4547" gradientTransform="matrix(54.858 0 0 -54.858 24997.6133 28944.3906)">
	<stop  offset="0" style="stop-color:#4886F1"/>
	<stop  offset="1" style="stop-color:#40C1F6"/>
</linearGradient>
<circle id="Ellipse_51-2" class="st0" cx="35.4" cy="36.7" r="27.4"/>
<path class="st1" d="M39.6,25.7H24.4c-0.4,0-0.8,0.3-0.8,0.8v21.8c0,0.4,0.3,0.8,0.8,0.8h12.7c0,0,0,0,0,0c0-2.6,1.3-4.9,3.3-6.3
	V26.5C40.4,26.1,40,25.7,39.6,25.7z M27.3,32.8h9.6c0.5,0,0.9,0.4,0.9,0.9c0,0.5-0.4,0.9-0.9,0.9h-9.6c-0.5,0-0.9-0.4-0.9-0.9
	C26.3,33.2,26.8,32.8,27.3,32.8z M37.8,40.9c0,0.5-0.4,0.9-0.9,0.9h-9.6c0,0,0,0,0,0c-0.5,0-0.9-0.4-0.9-0.9c0-0.5,0.4-0.9,0.9-0.9
	h9.6C37.4,40,37.8,40.4,37.8,40.9C37.8,40.9,37.8,40.9,37.8,40.9z M37.8,37.4c0,0.5-0.4,0.9-0.9,0.9h-9.6c0,0,0,0,0,0
	c-0.5,0-0.9-0.4-0.9-0.9c0-0.5,0.4-0.9,0.9-0.9h9.6C37.4,36.5,37.8,36.9,37.8,37.4C37.8,37.4,37.8,37.4,37.8,37.4z"/>
<path class="st2" d="M24.4,49.1c-0.4,0-0.8-0.3-0.8-0.8V26.5c0-0.4,0.3-0.8,0.8-0.8h15.2c0.4,0,0.8,0.3,0.8,0.8v16.3
	c0.6-0.4,1.2-0.7,1.8-0.9V26.5c0-1.4-1.2-2.6-2.6-2.6H24.4c-1.4,0-2.6,1.2-2.6,2.6v21.8c0,1.4,1.2,2.6,2.6,2.6h12.9
	c-0.1-0.6-0.2-1.2-0.2-1.8H24.4z"/>
<path class="st2" d="M48,21.5c0-1.4-1.2-2.6-2.6-2.6H30.2c-1.4,0-2.6,1.2-2.6,2.6c0,0.5,0.4,0.9,0.9,0.9c0.5,0,0.9-0.4,0.9-0.9
	c0-0.4,0.3-0.8,0.8-0.8h15.2c0.4,0,0.8,0.3,0.8,0.8v20.1c0.6,0.1,1.2,0.3,1.8,0.6V21.5z"/>
<path class="st2" d="M36.9,36.5h-9.6c-0.5,0-0.9,0.4-0.9,0.9c0,0.5,0.4,0.9,0.9,0.9c0,0,0,0,0,0h9.6c0.5,0,0.9-0.4,0.9-0.9
	c0,0,0,0,0,0C37.8,36.9,37.4,36.5,36.9,36.5z"/>
<path class="st2" d="M36.9,40h-9.6c-0.5,0-0.9,0.4-0.9,0.9c0,0.5,0.4,0.9,0.9,0.9c0,0,0,0,0,0h9.6c0.5,0,0.9-0.4,0.9-0.9
	c0,0,0,0,0,0C37.8,40.4,37.4,40,36.9,40z"/>
<path class="st2" d="M27.3,34.7h9.6c0.5,0,0.9-0.4,0.9-0.9c0-0.5-0.4-0.9-0.9-0.9h-9.6c-0.5,0-0.9,0.4-0.9,0.9
	C26.3,34.3,26.8,34.7,27.3,34.7z"/>
<path class="st2" d="M44.8,42.5c-3.7,0-6.6,3-6.6,6.6s3,6.6,6.6,6.6s6.6-3,6.6-6.6S48.5,42.5,44.8,42.5z M43.1,48.5
	c0.1-0.1,0.1-0.1,0.6-0.1h0.5V47v-1.4l0.1-0.1c0.1-0.1,0.1-0.1,0.6-0.1s0.5,0,0.6,0.1l0.1,0.1V47v1.4H46c0.5,0,0.5,0,0.6,0.1
	c0,0,0.1,0.1,0.1,0.2c0,0.1-0.1,0.2-0.9,1c-0.8,0.8-0.9,0.9-1,0.9s-0.2-0.1-1-0.9c-0.8-0.8-0.9-0.9-0.9-1C43,48.6,43,48.5,43.1,48.5
	z M47.5,52.7L47.5,52.7l-2.7,0.1h-2.6l-0.1-0.1c-0.1-0.1-0.1-0.1-0.1-0.6c0-0.5,0-0.5,0.1-0.6l0.1-0.1h2.6h2.6l0.1,0.1
	c0.1,0.1,0.1,0.1,0.1,0.6C47.5,52.6,47.5,52.6,47.5,52.7z"/>
</svg>
