<?xml version="1.0" encoding="utf-8"?>
<!-- Generator: Adobe Illustrator 24.0.0, SVG Export Plug-In . SVG Version: 6.00 Build 0)  -->
<svg version="1.1" id="Layer_1" xmlns="http://www.w3.org/2000/svg" xmlns:xlink="http://www.w3.org/1999/xlink" x="0px" y="0px"
	 viewBox="0 0 69.9 69.9" style="enable-background:new 0 0 69.9 69.9;" xml:space="preserve">
<style type="text/css">
	.st0{fill:url(#Path_749-2_1_);}
	.st1{fill-rule:evenodd;clip-rule:evenodd;fill:#FFFFFF;}
	.st2{fill:#FFFFFF;}
</style>
<g>
	<g id="Tasks_Icon" transform="translate(-9.358 -4.358)">
		<g transform="matrix(1, 0, 0, 1, 54.5, 1277.82)">
			
				<linearGradient id="Path_749-2_1_" gradientUnits="userSpaceOnUse" x1="-499.6827" y1="-745.9748" x2="-500.6827" y2="-746.9748" gradientTransform="matrix(54.8515 0 0 -54.858 27425.584 -42188.6484)">
				<stop  offset="0" style="stop-color:#4886F1"/>
				<stop  offset="1" style="stop-color:#40C1F6"/>
			</linearGradient>
			<path id="Path_749-2" class="st0" d="M-10.2-1266c15.1,0,27.4,12.3,27.4,27.4c0,15.1-12.3,27.4-27.4,27.4
				c-12.4,0-23.3-8.3-26.5-20.3c-0.6-2.3-0.9-4.7-0.9-7.1C-37.6-1253.7-25.4-1266-10.2-1266z"/>
		</g>
	</g>
	<g>
		<path id="P4_completed_mobile" class="st1" d="M40.6,34.1V21.4H23.5l0,23l17,0.2c0,0-0.5-0.2,0-1c0.6-0.8,1.3-1.6,2.1-2.3v4.4
			c-0.2,0.5-0.7,0.9-1.3,0.8H22.3c-0.5-0.1-0.9-0.5-0.8-1.1V20.6c0,0,0-1,0.8-1.3h19.6c0,0,0.8,0.4,0.8,1.1v11.8L40.6,34.1z
			 M26.3,26.8c0-0.6,0.5-1.1,1-1.1h9.4c0.6,0,1.1,0.5,1.1,1.1c0,0.6-0.5,1-1.1,1.1h-9.4C26.8,27.8,26.3,27.4,26.3,26.8z M26.3,32.6
			c0-0.6,0.5-1.1,1-1.1h9.4c0.6,0,1.1,0.5,1.1,1.1c0,0.6-0.5,1-1.1,1.1h-9.4C26.8,33.6,26.3,33.2,26.3,32.6z M34.6,38.7
			c0,0.6-0.5,1.1-1,1.1h-6.2c-0.6,0-1.1-0.5-1.1-1.1c0-0.6,0.5-1,1.1-1.1h6.2C34.1,37.7,34.6,38.1,34.6,38.7 M35.8,37.2
			c-0.2-0.2-0.2-0.4,0-0.6c0,0,0,0,0,0l0.6-0.6c0.2-0.2,0.4-0.2,0.6,0c0,0,0,0,0,0l0,0l2.4,2.6c0.1,0.1,0.2,0.1,0.3,0c0,0,0,0,0,0
			l5.9-6.2h0c0.2-0.2,0.4-0.2,0.6,0c0,0,0,0,0,0l0.6,0.6c0.2,0.2,0.2,0.4,0,0.6c0,0,0,0,0,0l0,0l-7,7.4c-0.2,0.2-0.4,0.2-0.6,0
			c0,0,0,0,0,0l-3.4-3.7L35.8,37.2z"/>
		<path class="st2" d="M44,41.1c-3.7,0-6.6,3-6.6,6.6s3,6.6,6.6,6.6s6.6-3,6.6-6.6S47.7,41.1,44,41.1z M42.3,47.1
			c0.1-0.1,0.1-0.1,0.6-0.1h0.5v-1.4v-1.4l0.1-0.1c0.1-0.1,0.1-0.1,0.6-0.1s0.5,0,0.6,0.1l0.1,0.1v1.4V47h0.4c0.5,0,0.5,0,0.6,0.1
			c0,0,0.1,0.1,0.1,0.2c0,0.1-0.1,0.2-0.9,1c-0.8,0.8-0.9,0.9-1,0.9s-0.2-0.1-1-0.9c-0.8-0.8-0.9-0.9-0.9-1
			C42.2,47.2,42.2,47.1,42.3,47.1z M46.7,51.3L46.7,51.3L44,51.4h-2.6l-0.1-0.1c-0.1-0.1-0.1-0.1-0.1-0.6s0-0.5,0.1-0.6l0.1-0.1H44
			h2.6l0.1,0.1c0.1,0.1,0.1,0.1,0.1,0.6C46.7,51.2,46.7,51.2,46.7,51.3z"/>
	</g>
</g>
</svg>
