<?xml version="1.0" encoding="utf-8"?>
<!-- Generator: Adobe Illustrator 24.0.0, SVG Export Plug-In . SVG Version: 6.00 Build 0)  -->
<svg version="1.1" id="Layer_1" xmlns="http://www.w3.org/2000/svg" xmlns:xlink="http://www.w3.org/1999/xlink" x="0px" y="0px"
	 viewBox="0 0 512 512" style="enable-background:new 0 0 512 512;" xml:space="preserve">
<style type="text/css">
	.st0{fill:url(#SVGID_1_);}
	.st1{fill:#3270DC;}
</style>
<g>
	<linearGradient id="SVGID_1_" gradientUnits="userSpaceOnUse" x1="44" y1="256" x2="468" y2="256">
		<stop  offset="0" style="stop-color:#4886F1"/>
		<stop  offset="1" style="stop-color:#40C1F6"/>
	</linearGradient>
	<path class="st0" d="M365.6,185c-56.5,0-102.4,45.8-102.4,102.4c0,81.5,102.4,180.6,102.4,180.6S468,368.9,468,287.4
		C468,230.9,422.2,185,365.6,185L365.6,185z M365.6,362.1c-41.3,0-74.7-33.5-74.7-74.7c0-41.3,33.5-74.7,74.7-74.7
		c41.3,0,74.7,33.5,74.7,74.7S406.9,362.1,365.6,362.1z M105.8,44C71.7,44,44,71.7,44,105.8c0,49.2,61.8,109,61.8,109
		s61.8-59.8,61.8-109C167.6,71.7,140,44,105.8,44z M105.8,150.9c-24.9,0-45.1-20.2-45.1-45.1s20.2-45.1,45.1-45.1
		s45.1,20.2,45.1,45.1S130.7,150.9,105.8,150.9z M119.1,467.4l2.8-24.7c8,1,31.8,0.5,31.8,0.5V468C153.7,468,131,468,119.1,467.4
		L119.1,467.4z M336.3,468h-33.2v-24.8h33.2V468z M290.7,468h-33.2v-24.8h33.2V468z M245,468h-33.2v-24.8H245V468z M199.4,468h-33.2
		v-24.8h33.2V468z M104.6,464.4c-22.2-7.1-29-22.3-31-30.8l24.1-5.9c1.5,6.1,6.4,10.5,14.5,13.1L104.6,464.4z M97.6,419.6l-24.7-2.7
		c1.8-16.2,9.6-28.9,22.6-36.6l12.6,21.4C101.9,405.3,98.5,411.2,97.6,419.6L97.6,419.6z M116.3,398.4l-6.1-24.1
		c12.5-3.3,31.6-2.4,35.9-2.4l0.2,24.8C139.8,396.8,125.9,395.4,116.3,398.4L116.3,398.4z M158.9,396.6l-0.5-24.8
		c13.6-0.3,23.7-0.8,31.8-1.8l3,24.7C184.2,395.7,173.3,396.3,158.9,396.6L158.9,396.6z M206.6,392.4l-5.5-24.2
		c14.3-3.2,15.5-7.8,15.9-9.5l24.1,6.2C235.8,385.8,213.8,390.7,206.6,392.4L206.6,392.4z M217.2,351.8c-0.4-2.2-1.7-8.7-14.4-14.3
		l10-22.7c20.3,9,26.9,22.5,28.8,32.2L217.2,351.8z M192.8,334.1c-8.4-2.2-18.5-3.6-30.1-4.2l1.1-24.8c13.4,0.6,25.3,2.3,35.4,5
		L192.8,334.1z M150.6,329.7c-16.2-0.3-29.2-4.3-38.7-12.1l15.6-19.3c5.1,4.1,13,6.3,23.5,6.5L150.6,329.7z M101,304.6
		c-8.6-15.4-7.5-34.1-7.6-38.3h24.8c0.1,2.2-1.3,15.9,4.4,26.1L101,304.6z M118.2,253.9H93.4v-33.2h24.8V253.9z"/>
</g>
<path class="st1" d="M401.8,315.8l-14.3-14.3c4.5-6,6.9-13.3,6.9-20.9c0-19.2-15.7-34.9-34.9-34.9c-14.5,0-34.9,10.8-34.9,34.9
	c0,19.2,15.7,34.9,34.9,34.9c7.3,0,14.4-2.3,20.3-6.5l14.4,14.4c1,1,2.4,1.6,3.8,1.6s2.8-0.6,3.8-1.6s1.6-2.4,1.6-3.8
	C403.4,318.2,402.8,316.8,401.8,315.8L401.8,315.8z M359.6,307.3c-14.7,0-26.7-12-26.7-26.7c0-18.4,15.6-26.7,26.7-26.7
	c14.7,0,26.7,12,26.7,26.7C386.2,295.4,374.3,307.3,359.6,307.3z"/>
</svg>
