<svg xmlns="http://www.w3.org/2000/svg" width="635" height="381.6" viewBox="0 0 635 381.6"><defs><style>.a{fill:#2598d5;}.b{fill:#4c4a4c;}</style></defs><title>Formsz__Logo_New</title><path class="a" d="M79.3,240.5a39.3,39.3,0,0,1,6.3-.5c4.1,0,6.9.9,8.9,2.6s3.4,4.3,3.4,8-1.3,6.8-3.4,8.6-5.6,3-9.8,3a37.5,37.5,0,0,1-5.4-.3Zm4,18.5h2.2c5.1,0,8.2-2.9,8.2-8.4s-2.7-7.6-7.7-7.6a8.7,8.7,0,0,0-2.7.3Z"/><path class="a" d="M106.1,241.8a2.2,2.2,0,1,1-4.4,0,2.1,2.1,0,0,1,2.2-2.1A2,2,0,0,1,106.1,241.8ZM101.9,262V246.2h4V262Z"/><path class="a" d="M125,259.7c0,3.3-.7,5.6-2.3,7.1s-3.9,1.9-6.1,1.9a11.8,11.8,0,0,1-5.5-1.2l.9-3a10.6,10.6,0,0,0,4.6,1.2c2.6,0,4.5-1.4,4.5-4.8v-1.3H121a5.5,5.5,0,0,1-4.6,2.3c-3.9,0-6.6-3.3-6.6-7.7s3.3-8.3,7.1-8.3a4.8,4.8,0,0,1,4.5,2.4h.1l.2-2.1h3.4c0,1.1-.1,2.4-.1,4.6Zm-4-7.2a3.4,3.4,0,0,0-.1-1,3.3,3.3,0,0,0-3.2-2.6c-2.3,0-3.9,2-3.9,5.2s1.3,4.8,3.8,4.8a3.5,3.5,0,0,0,3.3-2.4,6.6,6.6,0,0,0,.1-1.4Z"/><path class="a" d="M134,241.8a2.2,2.2,0,0,1-2.3,2.2,2.2,2.2,0,0,1-2.2-2.2,2.1,2.1,0,0,1,2.2-2.1A2.2,2.2,0,0,1,134,241.8ZM129.7,262V246.2h4V262Z"/><path class="a" d="M143.1,242.2v4h3.8v3h-3.8v7c0,1.9.6,2.9,2.1,2.9l1.5-.2v3a10,10,0,0,1-2.9.4,4.4,4.4,0,0,1-3.4-1.3c-.9-.9-1.3-2.3-1.3-4.4v-7.4H137v-3h2.2v-2.9Z"/><path class="a" d="M162.7,258.2a20.9,20.9,0,0,0,.3,3.8h-3.6l-.3-1.8H159a5.5,5.5,0,0,1-4.6,2.1,4.7,4.7,0,0,1-5-4.7c0-3.9,3.5-5.9,9.4-5.9v-.3c0-1-.5-2.7-3.2-2.7a8.3,8.3,0,0,0-4.3,1.2l-.7-2.6a11.1,11.1,0,0,1,5.6-1.4c5.1,0,6.5,3.2,6.5,6.6Zm-3.8-3.9c-2.9,0-5.5.5-5.5,2.9a2.1,2.1,0,0,0,2.2,2.3,3.3,3.3,0,0,0,3.2-2.2,2.5,2.5,0,0,0,.1-.8Z"/><path class="a" d="M167.5,239h4v23h-4Z"/><path class="a" d="M183.9,240.5a37.4,37.4,0,0,1,6.3-.5c4.1,0,6.8.9,8.8,2.6s3.5,4.3,3.5,8a11.2,11.2,0,0,1-3.4,8.6c-2.2,2-5.7,3-9.9,3a36,36,0,0,1-5.3-.3Zm3.9,18.5H190c5.2,0,8.3-2.9,8.3-8.4s-2.8-7.6-7.8-7.6a9.1,9.1,0,0,0-2.7.3Z"/><path class="a" d="M218.6,258.2a21.8,21.8,0,0,0,.2,3.8h-3.6l-.3-1.8h0a5.7,5.7,0,0,1-4.7,2.1,4.6,4.6,0,0,1-4.9-4.7c0-3.9,3.5-5.9,9.3-5.9v-.3c0-1-.4-2.7-3.2-2.7a7.7,7.7,0,0,0-4.2,1.2l-.8-2.6a11.3,11.3,0,0,1,5.7-1.4c5,0,6.5,3.2,6.5,6.6Zm-3.9-3.9c-2.8,0-5.5.5-5.5,2.9a2.1,2.1,0,0,0,2.3,2.3,3.2,3.2,0,0,0,3.1-2.2,2.5,2.5,0,0,0,.1-.8Z"/><path class="a" d="M227.7,242.2v4h3.8v3h-3.8v7c0,1.9.5,2.9,2.1,2.9l1.5-.2v3a10,10,0,0,1-2.9.4,4.4,4.4,0,0,1-3.4-1.3c-.9-.9-1.3-2.3-1.3-4.4v-7.4h-2.2v-3h2.2v-2.9Z"/><path class="a" d="M247.3,258.2a20.9,20.9,0,0,0,.3,3.8H244l-.3-1.8h-.1a5.6,5.6,0,0,1-4.7,2.1,4.7,4.7,0,0,1-4.9-4.7c0-3.9,3.5-5.9,9.3-5.9v-.3c0-1-.4-2.7-3.2-2.7a8.3,8.3,0,0,0-4.2,1.2l-.8-2.6a11.6,11.6,0,0,1,5.7-1.4c5.1,0,6.5,3.2,6.5,6.6Zm-3.9-3.9c-2.8,0-5.5.5-5.5,2.9a2.1,2.1,0,0,0,2.3,2.3,3.2,3.2,0,0,0,3.1-2.2,2.5,2.5,0,0,0,.1-.8Z"/><path class="a" d="M275.1,261.4a15.5,15.5,0,0,1-5.6.9c-6.9,0-11.1-4.3-11.1-11s5-11.5,11.6-11.5a12.4,12.4,0,0,1,5.3,1l-.8,3.2a10.2,10.2,0,0,0-4.3-.9c-4.4,0-7.6,2.8-7.6,8.1s2.8,7.8,7.6,7.8a11.4,11.4,0,0,0,4.3-.8Z"/><path class="a" d="M293.4,254c0,5.7-4.1,8.3-8.1,8.3s-7.9-3-7.9-8.1,3.4-8.3,8.2-8.3S293.4,249.2,293.4,254Zm-11.8.1c0,3.1,1.5,5.4,3.9,5.4s3.8-2.2,3.8-5.4-1.1-5.3-3.8-5.3S281.6,251.5,281.6,254.1Z"/><path class="a" d="M297.3,239h3.9v23h-3.9Z"/><path class="a" d="M306.2,239h3.9v23h-3.9Z"/><path class="a" d="M317.9,255.2c.1,2.9,2.3,4.1,4.8,4.1a14,14,0,0,0,4.4-.7l.5,2.7a13.3,13.3,0,0,1-5.4,1c-5.2,0-8.2-3.1-8.2-7.9s2.7-8.5,7.7-8.5,6.8,4.2,6.8,7.6a7.2,7.2,0,0,1-.1,1.7Zm6.9-2.8c0-1.4-.6-3.8-3.3-3.8s-3.5,2.2-3.6,3.8Z"/><path class="a" d="M343.9,261.5a11.7,11.7,0,0,1-4.5.8c-4.9,0-8.1-3.2-8.1-8s3.2-8.4,8.8-8.4a10.3,10.3,0,0,1,3.8.7l-.7,3a6.8,6.8,0,0,0-3-.6,4.6,4.6,0,0,0-4.8,5.1c0,3.2,2.1,5.1,4.8,5.1a7.7,7.7,0,0,0,3.1-.6Z"/><path class="a" d="M352.4,242.2v4h3.8v3h-3.8v7c0,1.9.6,2.9,2.1,2.9l1.5-.2v3a9.5,9.5,0,0,1-2.9.4,4.4,4.4,0,0,1-3.4-1.3c-.9-.9-1.3-2.3-1.3-4.4v-7.4h-2.2v-3h2.2v-2.9Z"/><path class="a" d="M364.1,241.8a2.2,2.2,0,0,1-2.3,2.2,2.2,2.2,0,0,1-2.2-2.2,2.1,2.1,0,0,1,2.2-2.1A2.2,2.2,0,0,1,364.1,241.8ZM359.8,262V246.2h4V262Z"/><path class="a" d="M383.6,254c0,5.7-4,8.3-8,8.3s-7.9-3-7.9-8.1,3.4-8.3,8.1-8.3S383.6,249.2,383.6,254Zm-11.8.1c0,3.1,1.5,5.4,3.9,5.4s3.8-2.2,3.8-5.4-1.1-5.3-3.8-5.3S371.8,251.5,371.8,254.1Z"/><path class="a" d="M387.5,250.9c0-1.8-.1-3.3-.1-4.7h3.4l.2,2.4h.1a5.8,5.8,0,0,1,5.1-2.7c2.7,0,5.5,1.8,5.5,6.7V262h-3.9v-8.9c0-2.3-.9-4-3-4a3.3,3.3,0,0,0-3.1,2.3,2.7,2.7,0,0,0-.2,1.3V262h-4Z"/><path class="a" d="M427.7,262l-1.7-1.8a8.9,8.9,0,0,1-6.1,2.1c-4.8,0-7.2-3-7.2-6.1s1.7-5,4.2-6.3h0a7.3,7.3,0,0,1-1.7-4.4,5.6,5.6,0,0,1,6-5.6c3.1,0,5.5,1.9,5.5,4.9s-1.3,4.1-4.5,5.7h0l4.3,5a13.2,13.2,0,0,0,2-5.8h3.6a16.6,16.6,0,0,1-3.4,8.2l3.7,4.1Zm-3.5-4.1c-1.4-1.4-3.4-3.7-5.5-6a4.4,4.4,0,0,0-2.2,3.6,3.8,3.8,0,0,0,4,3.9A5.5,5.5,0,0,0,424.2,257.9ZM418.8,245a5.5,5.5,0,0,0,1.5,3.5c1.9-1.2,2.9-2.2,2.9-3.7a2.2,2.2,0,0,0-2.1-2.4A2.3,2.3,0,0,0,418.8,245Z"/><path class="a" d="M447.1,255.8l-1.9,6.2h-4.1l7-21.8h5.1l7,21.8h-4.3l-1.9-6.2Zm6.2-3-1.7-5.4c-.4-1.3-.8-2.8-1.1-4h-.1c-.3,1.2-.6,2.7-1,4l-1.7,5.4Z"/><path class="a" d="M463.5,250.9c0-1.8,0-3.3-.1-4.7h3.5l.2,2.4h.1a5.8,5.8,0,0,1,5-2.7c2.7,0,5.6,1.8,5.6,6.7V262h-4v-8.9c0-2.3-.8-4-3-4a3.3,3.3,0,0,0-3.1,2.3,5.1,5.1,0,0,0-.2,1.3V262h-4Z"/><path class="a" d="M494.8,258.2a20.9,20.9,0,0,0,.3,3.8h-3.6l-.3-1.8h-.1a5.5,5.5,0,0,1-4.6,2.1,4.7,4.7,0,0,1-5-4.7c0-3.9,3.5-5.9,9.4-5.9v-.3c0-1-.5-2.7-3.2-2.7a8.3,8.3,0,0,0-4.3,1.2l-.8-2.6a11.6,11.6,0,0,1,5.7-1.4c5.1,0,6.5,3.2,6.5,6.6Zm-3.9-3.9c-2.8,0-5.4.5-5.4,2.9a2.1,2.1,0,0,0,2.2,2.3,3.3,3.3,0,0,0,3.2-2.2v-3Z"/><path class="a" d="M499.6,239h4v23h-4Z"/><path class="a" d="M511,246.2l2.8,8.5a17.1,17.1,0,0,1,.9,3h.1c.3-.9.6-2.1.9-3.1l2.4-8.4h4.3l-4,10.8c-2.1,5.8-3.6,8.5-5.4,10.1a8.6,8.6,0,0,1-4.2,2l-.9-3.3a9.5,9.5,0,0,0,2.3-1.1,7.8,7.8,0,0,0,2.2-2.5,2.5,2.5,0,0,0,.2-.7,1.5,1.5,0,0,0-.2-.8l-5.8-14.5Z"/><path class="a" d="M524.7,258.3a9.4,9.4,0,0,0,4,1.2c1.8,0,2.5-.8,2.5-1.8s-.6-1.6-2.6-2.3-4.3-2.7-4.3-4.6,2.3-4.9,6-4.9a9.7,9.7,0,0,1,4.2.9l-.8,2.8a7.3,7.3,0,0,0-3.4-.9c-1.4,0-2.2.7-2.2,1.7s.8,1.4,2.8,2.2,4.1,2.4,4.2,4.8-2.3,4.9-6.4,4.9a11,11,0,0,1-4.8-1.1Z"/><path class="a" d="M543.2,241.8a2.2,2.2,0,0,1-2.3,2.2,2.2,2.2,0,0,1-2.2-2.2,2.1,2.1,0,0,1,2.2-2.1A2.2,2.2,0,0,1,543.2,241.8ZM538.9,262V246.2h4V262Z"/><path class="a" d="M547.6,258.3a9.4,9.4,0,0,0,4,1.2c1.8,0,2.6-.8,2.6-1.8s-.7-1.6-2.6-2.3-4.4-2.7-4.4-4.6,2.3-4.9,6-4.9a9.7,9.7,0,0,1,4.2.9l-.8,2.8a7.3,7.3,0,0,0-3.4-.9c-1.4,0-2.1.7-2.1,1.7s.7,1.4,2.7,2.2,4.2,2.4,4.2,4.8-2.2,4.9-6.4,4.9a11,11,0,0,1-4.8-1.1Z"/><path class="b" d="M88.1,205.1H77V114.2h54.2v10H88.1v29.3h38.2v10H88.1Z"/><path class="b" d="M251.5,167.4v37.7H240.4V114.2h23.5a96.3,96.3,0,0,1,10.2.5,41.4,41.4,0,0,1,7.6,1.3c6.4,1.8,11.2,4.7,14.5,8.8s5.1,9.4,5.1,15.6a25.5,25.5,0,0,1-1.8,9.8,21.5,21.5,0,0,1-5,7.5,24.6,24.6,0,0,1-7.6,5.3,47.8,47.8,0,0,1-9.9,3v.2l26.9,38.9H292.8l-27.9-37.7Zm0-43.2v33.3h10.9a72.7,72.7,0,0,0,8.7-.4,30.1,30.1,0,0,0,6.5-1.2,18,18,0,0,0,8.9-5.6,16.2,16.2,0,0,0,3.1-10.1,15.6,15.6,0,0,0-3-9.5,17.6,17.6,0,0,0-8.1-5.1,37.6,37.6,0,0,0-5.8-1.1q-3.4-.3-8.7-.3Z"/><path class="b" d="M363.9,205.1h-5.1l-22.9-54.3c-3.1-7.5-6.3-15.6-9.5-24.4h-.5c.6,12.7.9,24.2.9,34.7v44h-11V114.2h15.9l21.4,51.4c2.5,5.9,5.1,13,8.1,21.3h.3q5-13.8,8.1-21.3L391,114.2h16v90.9H395.9v-44c0-10.2.3-21.8.9-34.7h-.5c-3.4,9.3-6.5,17.4-9.5,24.4Z"/><path class="b" d="M431.9,138.3a13.4,13.4,0,0,0,1.6,6.6,13.9,13.9,0,0,0,4.4,4.3,31.6,31.6,0,0,0,6.4,2.8l7.5,2c3.5.9,7,1.8,10.4,2.9a29.4,29.4,0,0,1,9.1,4.3,21.1,21.1,0,0,1,6.5,7.1,24,24,0,0,1,2.5,11.4,26.1,26.1,0,0,1-2.7,12.2,23.9,23.9,0,0,1-7.4,8.4,34.6,34.6,0,0,1-11.2,4.9,62.1,62.1,0,0,1-14.1,1.6,58.1,58.1,0,0,1-7.2-.5,69.9,69.9,0,0,1-7.1-1.2,44.5,44.5,0,0,1-6.1-1.7,19.6,19.6,0,0,1-4.3-1.9V191.4a56.9,56.9,0,0,0,5.5,2.3l6.4,1.7c2.1.5,4.3.8,6.5,1.1a47.4,47.4,0,0,0,6.3.4,53.1,53.1,0,0,0,9.1-.8,21.6,21.6,0,0,0,7.5-2.7,14.4,14.4,0,0,0,5.2-5.2,16.2,16.2,0,0,0,1.9-8.3,12.6,12.6,0,0,0-1.7-6.7,15.4,15.4,0,0,0-4.4-4.4,28.8,28.8,0,0,0-6.4-2.8c-2.5-.7-5-1.4-7.7-2s-7-1.7-10.3-2.8A33,33,0,0,1,429,157a21.6,21.6,0,0,1-6.4-7,22.3,22.3,0,0,1-2.4-10.9,26.2,26.2,0,0,1,2.6-12,23.6,23.6,0,0,1,6.8-8.2,28.1,28.1,0,0,1,10-4.8,42.4,42.4,0,0,1,12-1.6,64.2,64.2,0,0,1,25.1,5v10.3a80.3,80.3,0,0,0-11.7-3.9,52.8,52.8,0,0,0-12.8-1.5,29.9,29.9,0,0,0-9,1.1,16.3,16.3,0,0,0-6.3,3.2,13.3,13.3,0,0,0-3.8,5A17.6,17.6,0,0,0,431.9,138.3Z"/><path class="b" d="M555.3,114.2v6.9l-52.7,74H556v10H488.1v-7l52.8-73.9H489.3v-10Z"/><path class="a" d="M166.3,140.4a1.3,1.3,0,0,0-.7-1.4l-7.4-4.2a34.1,34.1,0,0,1,26.1-12.5c18.9,0,34.3,15.9,34.3,35.6a4.6,4.6,0,0,0,4.6,4.7,4.7,4.7,0,0,0,4.6-4.7c0-24.9-19.6-45.2-43.5-45.2a43.2,43.2,0,0,0-32.4,15l-3.4-6.5a1.3,1.3,0,0,0-1.4-.7,1.4,1.4,0,0,0-1.1,1l-7.4,26a1.5,1.5,0,0,0,.4,1.4,1.2,1.2,0,0,0,1.3.3l25.1-7.6a1.3,1.3,0,0,0,.9-1.2Zm0,0"/><path class="a" d="M229.5,168.6a1.2,1.2,0,0,0-1.3-.3l-25,7.6a1.4,1.4,0,0,0-1,1.2,1.3,1.3,0,0,0,.7,1.4l7.4,4.2a34.1,34.1,0,0,1-26,12.5c-19,0-34.4-15.9-34.4-35.6a4.6,4.6,0,1,0-9.1,0c0,24.9,19.5,45.2,43.5,45.2a43,43,0,0,0,32.3-15l3.5,6.5a1.1,1.1,0,0,0,1.3.7,1.4,1.4,0,0,0,1.1-1l7.4-26a1.5,1.5,0,0,0-.4-1.4Zm0,0"/></svg>