<svg id="information" xmlns="http://www.w3.org/2000/svg" xmlns:xlink="http://www.w3.org/1999/xlink" width="21.6" height="21.6" viewBox="0 0 21.6 21.6">
  <defs>
    <linearGradient id="linear-gradient" x1="0.5" x2="0.5" y2="1" gradientUnits="objectBoundingBox">
      <stop offset="0" stop-color="#4886f1"/>
      <stop offset="1" stop-color="#40c1f6"/>
    </linearGradient>
  </defs>
  <path id="Path_721" data-name="Path 721" d="M10.8,0A10.8,10.8,0,1,0,21.6,10.8,10.812,10.812,0,0,0,10.8,0Zm0,19.636A8.836,8.836,0,1,1,19.636,10.8,8.846,8.846,0,0,1,10.8,19.636Z" fill="url(#linear-gradient)"/>
  <path id="Path_722" data-name="Path 722" d="M146.311,70a1.309,1.309,0,1,0,1.309,1.31A1.311,1.311,0,0,0,146.311,70Z" transform="translate(-135.511 -65.418)" fill="url(#linear-gradient)"/>
  <path id="Path_723" data-name="Path 723" d="M150.982,140a.982.982,0,0,0-.982.982v5.891a.982.982,0,1,0,1.964,0v-5.891A.982.982,0,0,0,150.982,140Z" transform="translate(-140.182 -130.836)" fill="url(#linear-gradient)"/>
</svg>
