<?xml version="1.0" encoding="utf-8"?>
<!-- Generator: Adobe Illustrator 24.0.1, SVG Export Plug-In . SVG Version: 6.00 Build 0)  -->
<svg version="1.1" id="Layer_1" xmlns="http://www.w3.org/2000/svg" xmlns:xlink="http://www.w3.org/1999/xlink" x="0px" y="0px"
	 viewBox="0 0 208.89 185.44" style="enable-background:new 0 0 208.89 185.44;" xml:space="preserve">
<style type="text/css">
	.st0{fill:#FFFFFF;}
	.st1{fill:url(#SVGID_1_);}
	.st2{fill:url(#SVGID_2_);}
	.st3{fill:url(#SVGID_3_);}
</style>
<g>
	<path class="st0" d="M59.78,26.81L59.78,26.81c24.67-24.67,64.66-24.67,89.33,0l0,0c22.18,22.18,24.72,57.28,5.97,82.43
		l-50.63,67.89l-50.63-67.89C35.05,84.09,37.6,48.99,59.78,26.81z"/>
	<g>
		
			<linearGradient id="SVGID_1_" gradientUnits="userSpaceOnUse" x1="0.1248" y1="183.7245" x2="0.4392" y2="183.7245" gradientTransform="matrix(9 169.5 169.5 -9 -31038.1465 1680.6465)">
			<stop  offset="0" style="stop-color:#3270DC"/>
			<stop  offset="1" style="stop-color:#40C1F6"/>
		</linearGradient>
		<path class="st1" d="M128.69,50.52H80.6c-1,0-1.81,0.81-1.81,1.81v5.66c0,1,0.81,1.81,1.81,1.81h48.09c1,0,1.81-0.81,1.81-1.81
			v-5.66C130.5,51.33,129.69,50.52,128.69,50.52z"/>
		
			<linearGradient id="SVGID_2_" gradientUnits="userSpaceOnUse" x1="0.1248" y1="183.7355" x2="0.4392" y2="183.7355" gradientTransform="matrix(9 169.5 169.5 -9 -31040.873 1680.7913)">
			<stop  offset="0" style="stop-color:#3270DC"/>
			<stop  offset="1" style="stop-color:#40C1F6"/>
		</linearGradient>
		<path class="st2" d="M128.69,66.71H80.6c-1,0-1.81,0.81-1.81,1.81v5.66c0,1,0.81,1.81,1.81,1.81h48.09c1,0,1.81-0.81,1.81-1.81
			v-5.66C130.5,67.52,129.69,66.71,128.69,66.71z"/>
		
			<linearGradient id="SVGID_3_" gradientUnits="userSpaceOnUse" x1="0.1248" y1="183.7466" x2="0.4392" y2="183.7466" gradientTransform="matrix(9 169.5 169.5 -9 -31043.5996 1680.936)">
			<stop  offset="0" style="stop-color:#3270DC"/>
			<stop  offset="1" style="stop-color:#40C1F6"/>
		</linearGradient>
		<path class="st3" d="M128.69,82.9H80.6c-1,0-1.81,0.81-1.81,1.81v5.66c0,1,0.81,1.81,1.81,1.81h48.09c1,0,1.81-0.81,1.81-1.81
			V84.7C130.5,83.71,129.69,82.9,128.69,82.9z"/>
	</g>
</g>
</svg>
