<svg xmlns="http://www.w3.org/2000/svg" width="22.175" height="22.065" viewBox="0 0 22.175 22.065">
  <g id="map-pin" transform="translate(0 -0.119)">
    <g id="Group_261" data-name="Group 261" transform="translate(0 0.119)">
      <g id="Group_260" data-name="Group 260">
        <path id="Path_721" data-name="Path 721" d="M23,5.927a5.809,5.809,0,0,0-11.617,0c0,4.6,5.808,11.4,5.808,11.4S23,10.5,23,5.927Zm-8.673-.347a2.865,2.865,0,1,1,2.865,2.865A2.865,2.865,0,0,1,14.328,5.581Z" transform="translate(-6.106 -0.119)" fill="#fff"/>
        <circle id="Ellipse_4" data-name="Ellipse 4" cx="1.409" cy="1.409" r="1.409" transform="translate(9.678 4.053)" fill="#fff"/>
        <path id="Path_722" data-name="Path 722" d="M14.371,32.87c-.473.684-.918,1.28-1.288,1.759,3.67.221,6.076,1.013,6.971,1.6-1.048.691-4.163,1.663-8.966,1.663s-7.918-.972-8.966-1.663c.895-.589,3.3-1.381,6.965-1.6-.371-.479-.816-1.074-1.289-1.758C3.28,33.316,0,34.652,0,36.231c0,1.943,4.965,3.518,11.088,3.518s11.087-1.575,11.087-3.518C22.176,34.651,18.892,33.314,14.371,32.87Z" transform="translate(0 -17.684)" fill="#fff"/>
      </g>
    </g>
  </g>
</svg>
