<?xml version="1.0" encoding="utf-8"?>
<!-- Generator: Adobe Illustrator 24.0.0, SVG Export Plug-In . SVG Version: 6.00 Build 0)  -->
<svg version="1.1" id="Layer_1" xmlns="http://www.w3.org/2000/svg" xmlns:xlink="http://www.w3.org/1999/xlink" x="0px" y="0px"
	 viewBox="0 0 512 512" style="enable-background:new 0 0 512 512;" xml:space="preserve">
<style type="text/css">
	.st0{clip-path:url(#SVGID_2_);}
	.st1{fill:url(#SVGID_3_);}
	.st2{fill:url(#SVGID_4_);}
</style>
<g>
	<g>
		<g>
			<defs>
				<rect id="SVGID_1_" x="72" y="280.5" width="360" height="74"/>
			</defs>
			<clipPath id="SVGID_2_">
				<use xlink:href="#SVGID_1_"  style="overflow:visible;"/>
			</clipPath>
			<g class="st0">
				<linearGradient id="SVGID_3_" gradientUnits="userSpaceOnUse" x1="88.2" y1="333.5" x2="424.8" y2="333.5">
					<stop  offset="0" style="stop-color:#4886F1"/>
					<stop  offset="1" style="stop-color:#40C1F6"/>
				</linearGradient>
				<path class="st1" d="M423.2,294.8c-0.7-0.7-1.7-1.1-2.7-1.1l-22.4,0.1l0,0l0,0L335,294l0,0l0,0l-31.6,0.1l-31.6,0.1l0,0l0,0
					l-31.6,0.1l0,0l0,0l-31.5,0.1l0,0l0,0l-31.5,0.1l0,0l0,0l-31.5,0.1l0,0l0,0l-31.5,0.1l0,0l0,0l-22.3,0.1c-1,0-2,0.4-2.6,1.1
					c-0.7,0.7-1.1,1.6-1.1,2.6l0.2,71.1c0,1,0.4,1.9,1.1,2.6s1.7,1.1,2.6,1.1l329-0.9c2.1,0,3.7-1.7,3.7-3.7l-0.2-71.1
					C424.3,296.5,423.9,295.5,423.2,294.8L423.2,294.8z M416.8,301.2l0.2,63.6l-321.6,0.9l-0.2-63.6h14.9l0.1,23.5
					c0,2.1,1.7,3.7,3.7,3.7c2.1,0,3.7-1.7,3.7-3.7l-0.1-23.5l24.1-0.1l0.1,35.7c0,2.1,1.7,3.7,3.7,3.7c2.1,0,3.7-1.7,3.7-3.7
					L149,302l24.1-0.1l0.1,23.5c0,2.1,1.7,3.7,3.7,3.7c2.1,0,3.7-1.7,3.7-3.7l-0.1-23.5l24.1-0.1l0.1,35.7c0,2.1,1.7,3.7,3.7,3.7
					c2.1,0,3.7-1.7,3.7-3.7l-0.1-35.7l24.1-0.1l0.1,23.5c0,2.1,1.7,3.7,3.7,3.7c2.1,0,3.7-1.7,3.7-3.7l-0.1-23.5l24.1-0.1l0.1,35.7
					c0,2.1,1.7,3.7,3.7,3.7c2.1,0,3.7-1.7,3.7-3.7l-0.1-35.7l24.1-0.1l0.1,23.5c0,2.1,1.7,3.7,3.7,3.7c2.1,0,3.7-1.7,3.7-3.7
					l-0.1-23.5l24.1-0.1l0.1,35.7c0,2.1,1.7,3.7,3.7,3.7c2.1,0,3.7-1.7,3.7-3.7l-0.1-35.7l24.1-0.1l0.1,23.5c0,2.1,1.7,3.7,3.7,3.7
					c2.1,0,3.7-1.7,3.7-3.7l-0.1-23.5l24.1-0.1l0.1,35.7c0,2.1,1.7,3.7,3.7,3.7c2.1,0,3.7-1.7,3.7-3.7l-0.1-35.7L416.8,301.2z"/>
			</g>
		</g>
	</g>
	<g>
		<linearGradient id="SVGID_4_" gradientUnits="userSpaceOnUse" x1="28.2" y1="255.95" x2="483.7" y2="255.95">
			<stop  offset="0" style="stop-color:#4886F1"/>
			<stop  offset="1" style="stop-color:#40C1F6"/>
		</linearGradient>
		<path class="st2" d="M420.8,151.8c-34.7,0-62.9,28.1-62.9,62.9c0,45,46,120,59.3,140.5H94.7C108,334.5,154,258.9,154,214.6
			c0-34.7-28.1-62.9-62.9-62.9s-62.9,28.1-62.9,62.9c0,50.9,58.9,140.3,62.7,145.6H421c3.6-5.2,62.7-95.4,62.7-145.6
			C483.7,179.9,455.6,151.8,420.8,151.8L420.8,151.8z M56.1,214.5c0-19.5,15.8-35.3,35.3-35.3s35.3,15.8,35.3,35.3
			s-15.8,35.3-35.3,35.3C72,249.9,56.1,234,56.1,214.5z M421.2,249.8c-19.5,0-35.3-15.8-35.3-35.3s15.8-35.3,35.3-35.3
			s35.3,15.8,35.3,35.3S440.7,249.8,421.2,249.8z"/>
	</g>
</g>
</svg>
