<svg xmlns="http://www.w3.org/2000/svg" width="25.211" height="6.302" viewBox="0 0 25.211 6.302">
  <path id="menu" d="M-2449.1-306.725a3.15,3.15,0,0,1,3.151-3.151,3.15,3.15,0,0,1,3.151,3.151,3.151,3.151,0,0,1-3.151,3.152A3.151,3.151,0,0,1-2449.1-306.725Zm0-9.454a3.151,3.151,0,0,1,3.151-3.152,3.151,3.151,0,0,1,3.151,3.152,3.15,3.15,0,0,1-3.151,3.151A3.15,3.15,0,0,1-2449.1-316.179Zm0-9.454a3.151,3.151,0,0,1,3.151-3.152,3.151,3.151,0,0,1,3.151,3.152,3.151,3.151,0,0,1-3.151,3.151A3.151,3.151,0,0,1-2449.1-325.633Z" transform="translate(328.784 -2442.802) rotate(-90)" fill="#44a1f3"/>
</svg>
