<svg xmlns="http://www.w3.org/2000/svg" xmlns:xlink="http://www.w3.org/1999/xlink" width="27.017" height="26.04" viewBox="0 0 27.017 26.04">
  <defs>
    <linearGradient id="linear-gradient" x1="0.5" x2="0.5" y2="1" gradientUnits="objectBoundingBox">
      <stop offset="0" stop-color="#4886f1"/>
      <stop offset="1" stop-color="#40c1f6"/>
    </linearGradient>
  </defs>
  <path id="Navigate" d="M27.839,37.049l.63-.9c.466-.663,4.557-6.555,4.557-9.1a5.188,5.188,0,0,0-10.374,0c0,2.548,4.091,8.439,4.557,9.1Zm0-13.578A3.622,3.622,0,0,1,31.5,27.05c0,1.383-2.039,4.9-3.658,7.333-1.619-2.432-3.658-5.951-3.658-7.334a3.622,3.622,0,0,1,3.658-3.578Zm1.524,3.423a1.524,1.524,0,1,0-1.524,1.491,1.524,1.524,0,0,0,1.524-1.491Zm-1.524.741Zm-11.352-9.4-.717,1.516c.22.1.458.227.7.371l.86-1.439C17.039,18.512,16.752,18.363,16.487,18.238ZM18.3,22.169l1.632-.38a3.805,3.805,0,0,0-.413-1.036l-1.452.838a2.128,2.128,0,0,1,.233.577Zm1.708.749-1.67-.147a2.494,2.494,0,0,1-.147.634l1.575.574a4.2,4.2,0,0,0,.241-1.061Zm-2.351-1.87,1.228-1.143a6.241,6.241,0,0,0-.749-.676L17.11,20.557A4.422,4.422,0,0,1,17.655,21.048Zm.571,6.827,0-.135-1.675-.072c0,.07,0,.139,0,.207a4.267,4.267,0,0,0,.086.865l1.642-.34A2.565,2.565,0,0,1,18.225,27.876ZM16.7,26.648l1.631.388a5.083,5.083,0,0,1,.228-.71L17,25.7a6.746,6.746,0,0,0-.3.947Zm5.619,3.788.054,1.675q.448-.014.933-.066l-.182-1.667c-.279.03-.548.049-.806.058ZM19.2,25.093l.115-.187-1.439-.86-.088.146q-.205.321-.375.635l1.475.8Q19.034,25.362,19.2,25.093Zm1.261,6.9a8.495,8.495,0,0,0,.959.11l.1-1.673a6.832,6.832,0,0,1-.77-.088Zm-1.978-3-1.474.8a3.788,3.788,0,0,0,.67.889l1.179-1.192a2.121,2.121,0,0,1-.376-.5Zm.066,2.341a5.341,5.341,0,0,0,.942.419l.537-1.588a3.713,3.713,0,0,1-.648-.286ZM11.2,26.083l.63-.9c.466-.663,4.557-6.555,4.557-9.1a5.188,5.188,0,0,0-10.374,0c0,2.548,4.091,8.439,4.557,9.1Zm0-13.578a3.622,3.622,0,0,1,3.658,3.578c0,1.383-2.039,4.9-3.658,7.333-1.619-2.431-3.658-5.95-3.658-7.333A3.622,3.622,0,0,1,11.2,12.505Zm1.523,3.423A1.524,1.524,0,1,0,11.2,17.419a1.524,1.524,0,0,0,1.523-1.491ZM11.2,16.67Z" transform="translate(-6.009 -11.009)" fill-rule="evenodd" fill="url(#linear-gradient)"/>
</svg>
