<svg xmlns="http://www.w3.org/2000/svg" width="26.702" height="26.675" viewBox="0 0 26.702 26.675">
  <path id="notifications" d="M29.716,25.256c-2.4-2.087-4.621-5.033-4.621-12.386a7.68,7.68,0,1,0-15.36,0c0,7.36-2.22,10.3-4.623,12.388a3.066,3.066,0,0,0-1.048,2.305.876.876,0,0,0,.874.879h8.291a4.272,4.272,0,0,0,8.374,0h8.291a.876.876,0,0,0,.873-.879A3.049,3.049,0,0,0,29.716,25.256Zm-12.3,4.852a2.535,2.535,0,0,1-2.374-1.666h4.748a2.535,2.535,0,0,1-2.374,1.666ZM6.155,26.685a1.265,1.265,0,0,1,.1-.1c3.663-3.18,5.225-7.282,5.225-13.716a5.933,5.933,0,1,1,11.866,0c0,6.428,1.563,10.53,5.227,13.716a1.278,1.278,0,0,1,.1.1Z" transform="translate(-4.064 -5.19)" fill="#fff" fill-rule="evenodd"/>
</svg>
