<svg xmlns="http://www.w3.org/2000/svg" width="31" height="31" viewBox="0 0 31 31">
  <g id="painter-palette" transform="translate(0 0)">
    <g id="palette">
      <path id="Path_766" data-name="Path 766" d="M15.5,0a15.5,15.5,0,0,0,0,31,2.649,2.649,0,0,0,2.583-2.583,2.211,2.211,0,0,0-.689-1.722,3.06,3.06,0,0,1-.689-1.722,2.649,2.649,0,0,1,2.583-2.583h3.1A8.527,8.527,0,0,0,31,13.778C31,6.2,24.111,0,15.5,0ZM6.028,15.5a2.583,2.583,0,1,1,0-5.167,2.649,2.649,0,0,1,2.583,2.583A2.649,2.649,0,0,1,6.028,15.5Zm5.167-6.889A2.649,2.649,0,0,1,8.611,6.028a2.649,2.649,0,0,1,2.583-2.583,2.649,2.649,0,0,1,2.583,2.583A2.649,2.649,0,0,1,11.194,8.611Zm8.611,0a2.649,2.649,0,0,1-2.583-2.583,2.583,2.583,0,1,1,5.167,0A2.649,2.649,0,0,1,19.806,8.611ZM24.972,15.5a2.649,2.649,0,0,1-2.583-2.583,2.583,2.583,0,1,1,5.167,0A2.649,2.649,0,0,1,24.972,15.5Z" fill="#fff"/>
    </g>
  </g>
</svg>
