<svg xmlns="http://www.w3.org/2000/svg" width="117.8" height="121.6" viewBox="0 0 117.8 121.6">
  <g id="Pencil_2" data-name="Pencil 2" transform="translate(-5.6 -6.9)">
    <path id="Path_774" data-name="Path 774" d="M119.2,114.3H9.8c-2.3,0-4.1,3.29-4.1,7.1s1.9,7.1,4.1,7.1H119.3c2.3,0,4.1-3.29,4.1-7.1S121.5,114.3,119.2,114.3Z" fill="#fff"/>
    <path id="Path_775" data-name="Path 775" d="M5.7,78,5.6,97.5a4.234,4.234,0,0,0,1.2,3,4,4,0,0,0,2.9,1.2l19.4-.1a4,4,0,0,0,2.9-1.2l67-67a4.226,4.226,0,0,0,0-5.9L79.8,8.1a4.226,4.226,0,0,0-5.9,0L60.5,21.6,6.9,75.1A4.454,4.454,0,0,0,5.7,78ZM76.9,16.9,90.4,30.4,82.8,38,69.3,24.5l7.6-7.6ZM14,79.8,63.4,30.4,76.9,43.9,27.5,93.2l-13.6.1L14,79.8Z" fill="#fff"/>
  </g>
</svg>
