<svg xmlns="http://www.w3.org/2000/svg" width="30.457" height="26.05" viewBox="0 0 30.457 26.05">
  <g id="route" transform="translate(-15.064 -22)">
    <path id="Path_687" data-name="Path 687" d="M35.179,23.371H36.55a.686.686,0,0,0,0-1.371H35.179a.686.686,0,1,0,0,1.371Z" transform="translate(-6.11)" fill="#00acf3"/>
    <path id="Path_688" data-name="Path 688" d="M31.175,30.907a2.411,2.411,0,0,1-.858-.158.686.686,0,1,0-.489,1.281,3.785,3.785,0,0,0,1.346.247h.245a.686.686,0,0,0,0-1.371Z" transform="translate(-4.504 -2.737)" fill="#00acf3"/>
    <path id="Path_689" data-name="Path 689" d="M29.306,23.843a.686.686,0,0,0,.362-.1,2.366,2.366,0,0,1,1-.345.686.686,0,0,0-.15-1.363,3.718,3.718,0,0,0-1.573.544.686.686,0,0,0,.364,1.268Z" transform="translate(-4.263 -0.009)" fill="#00acf3"/>
    <path id="Path_690" data-name="Path 690" d="M35.611,40c-.059,0-.117,0-.175,0a.685.685,0,0,0,.027,1.37h.029l1.343,0a.686.686,0,1,0,0-1.371Z" transform="translate(-6.2 -5.661)" fill="#00acf3"/>
    <path id="Path_691" data-name="Path 691" d="M42.55,23.371a.686.686,0,0,0,0-1.371H41.179a.686.686,0,1,0,0,1.371Z" transform="translate(-7.997)" fill="#00acf3"/>
    <path id="Path_692" data-name="Path 692" d="M47.464,40a.686.686,0,0,0,0,1.371h1.371a.686.686,0,0,0,0-1.371Z" transform="translate(-9.973 -5.661)" fill="#00acf3"/>
    <path id="Path_693" data-name="Path 693" d="M50.093,31.686A.685.685,0,0,0,49.408,31H48.037a.686.686,0,0,0,0,1.371h1.371A.685.685,0,0,0,50.093,31.686Z" transform="translate(-10.154 -2.83)" fill="#00acf3"/>
    <path id="Path_694" data-name="Path 694" d="M41.464,41.371h1.371a.686.686,0,0,0,0-1.371H41.464a.686.686,0,0,0,0,1.371Z" transform="translate(-8.087 -5.661)" fill="#00acf3"/>
    <path id="Path_695" data-name="Path 695" d="M44.093,31.686A.685.685,0,0,0,43.408,31H42.037a.686.686,0,0,0,0,1.371h1.371A.685.685,0,0,0,44.093,31.686Z" transform="translate(-8.267 -2.83)" fill="#00acf3"/>
    <path id="Path_696" data-name="Path 696" d="M36.037,31a.686.686,0,0,0,0,1.371h1.371a.686.686,0,0,0,0-1.371Z" transform="translate(-6.38 -2.83)" fill="#00acf3"/>
    <path id="Path_697" data-name="Path 697" d="M23.121,58H21.75a.686.686,0,1,0,0,1.371h1.371a.686.686,0,1,0,0-1.371Z" transform="translate(-1.887 -11.321)" fill="#00acf3"/>
    <path id="Path_698" data-name="Path 698" d="M17.121,58H15.75a.686.686,0,1,0,0,1.371h1.371a.686.686,0,0,0,0-1.371Z" transform="translate(0 -11.321)" fill="#00acf3"/>
    <path id="Path_699" data-name="Path 699" d="M51.952,54.509a.685.685,0,0,0-.819.518,2.378,2.378,0,0,1-.454.954.685.685,0,1,0,1.078.847,3.777,3.777,0,0,0,.714-1.5A.686.686,0,0,0,51.952,54.509Z" transform="translate(-11.154 -10.218)" fill="#00acf3"/>
    <path id="Path_700" data-name="Path 700" d="M50.732,51.7a.686.686,0,0,0,.538-1.109,3.8,3.8,0,0,0-1.288-1.047.686.686,0,1,0-.611,1.228,2.4,2.4,0,0,1,.821.668A.687.687,0,0,0,50.732,51.7Z" transform="translate(-10.669 -8.638)" fill="#00acf3"/>
    <path id="Path_701" data-name="Path 701" d="M45.807,49.686A.685.685,0,0,0,45.122,49H43.751a.686.686,0,0,0,0,1.371h1.371A.685.685,0,0,0,45.807,49.686Z" transform="translate(-8.806 -8.491)" fill="#00acf3"/>
    <path id="Path_702" data-name="Path 702" d="M47.072,58H45.749a.686.686,0,0,0,0,1.371H47.1l.02-.686v.686a.665.665,0,0,0,.662-.686A.706.706,0,0,0,47.072,58Z" transform="translate(-9.434 -11.321)" fill="#00acf3"/>
    <path id="Path_703" data-name="Path 703" d="M58.761,35.367a.686.686,0,0,0-1.354.217,2.259,2.259,0,0,1,.029.378,2.4,2.4,0,0,1-.1.677.685.685,0,0,0,.465.851.7.7,0,0,0,.193.027.686.686,0,0,0,.658-.493,3.777,3.777,0,0,0,.152-1.058A3.645,3.645,0,0,0,58.761,35.367Z" transform="translate(-13.286 -4.022)" fill="#00acf3"/>
    <path id="Path_704" data-name="Path 704" d="M27.546,28.621a.687.687,0,0,0,.437-.866,2.4,2.4,0,0,1-.119-.746,2.688,2.688,0,0,1,.019-.308.685.685,0,0,0-1.36-.171,3.992,3.992,0,0,0-.03.476,3.773,3.773,0,0,0,.187,1.178.687.687,0,0,0,.651.472A.666.666,0,0,0,27.546,28.621Z" transform="translate(-3.594 -1.236)" fill="#00acf3"/>
    <path id="Path_705" data-name="Path 705" d="M55.678,31.51a3.728,3.728,0,0,0-1.588-.495.686.686,0,0,0-.107,1.367,2.36,2.36,0,0,1,1.008.314.685.685,0,1,0,.688-1.186Z" transform="translate(-12.04 -2.835)" fill="#00acf3"/>
    <path id="Path_706" data-name="Path 706" d="M54.538,39.7a2.38,2.38,0,0,1-.927.186h-.147a.686.686,0,1,0,0,1.371h.147a3.743,3.743,0,0,0,1.457-.293.685.685,0,0,0-.53-1.264Z" transform="translate(-11.86 -5.551)" fill="#00acf3"/>
    <path id="Path_707" data-name="Path 707" d="M31.931,43.894a2.382,2.382,0,0,1,.424-.969.685.685,0,0,0-1.1-.812,3.757,3.757,0,0,0-.667,1.523.686.686,0,0,0,.544.8.685.685,0,0,0,.8-.545Z" transform="translate(-4.877 -6.237)" fill="#00acf3"/>
    <path id="Path_708" data-name="Path 708" d="M33.312,49.587a.685.685,0,0,0,.286-1.309,2.425,2.425,0,0,1-.842-.642.686.686,0,1,0-1.05.882,3.8,3.8,0,0,0,1.321,1.006A.69.69,0,0,0,33.312,49.587Z" transform="translate(-5.183 -7.985)" fill="#00acf3"/>
    <path id="Path_709" data-name="Path 709" d="M29.121,58H27.75a.686.686,0,1,0,0,1.371h1.371a.686.686,0,0,0,0-1.371Z" transform="translate(-3.774 -11.321)" fill="#00acf3"/>
    <path id="Path_710" data-name="Path 710" d="M35.121,58H33.75a.686.686,0,0,0,0,1.371h1.371a.686.686,0,0,0,0-1.371Z" transform="translate(-5.661 -11.321)" fill="#00acf3"/>
    <path id="Path_711" data-name="Path 711" d="M39.807,49.686A.685.685,0,0,0,39.122,49H37.751a.686.686,0,0,0,0,1.371h1.371A.685.685,0,0,0,39.807,49.686Z" transform="translate(-6.919 -8.491)" fill="#00acf3"/>
    <path id="Path_712" data-name="Path 712" d="M41.121,58H39.75a.686.686,0,0,0,0,1.371h1.371a.686.686,0,0,0,0-1.371Z" transform="translate(-7.548 -11.321)" fill="#00acf3"/>
  </g>
</svg>
