<?xml version="1.0" encoding="utf-8"?>
<!-- Generator: Adobe Illustrator 24.0.0, SVG Export Plug-In . SVG Version: 6.00 Build 0)  -->
<svg version="1.1" id="Layer_1" xmlns="http://www.w3.org/2000/svg" xmlns:xlink="http://www.w3.org/1999/xlink" x="0px" y="0px"
	 viewBox="0 0 512 512" style="enable-background:new 0 0 512 512;" xml:space="preserve">
<style type="text/css">
	.st0{fill:url(#SVGID_1_);}
	.st1{fill:url(#SVGID_2_);}
	.st2{fill:url(#SVGID_3_);}
	.st3{fill:url(#SVGID_4_);}
</style>
<g>
	<linearGradient id="SVGID_1_" gradientUnits="userSpaceOnUse" x1="162.5287" y1="189" x2="265.9026" y2="189">
		<stop  offset="0" style="stop-color:#4886F1"/>
		<stop  offset="1" style="stop-color:#40C1F6"/>
	</linearGradient>
	<path class="st0" d="M172.7,200.2l36.2,57c1.2,1.8,3.2,2.9,5.4,2.9s4.2-1.1,5.4-2.9l36.3-57.1l0,0c7.5-10.3,11-23.1,9.6-35.8
		c-1.3-12.7-7.3-24.5-16.8-33.1c-9.5-8.6-21.8-13.3-34.6-13.3c-12.8,0-25.1,4.7-34.6,13.3s-15.5,20.3-16.8,33.1
		c-1.3,12.7,2.1,25.5,9.6,35.8L172.7,200.2z M214.3,130.6c10.4,0,20.3,4.1,27.6,11.4c7.3,7.3,11.4,17.3,11.4,27.6
		c0,8.5-2.8,16.7-7.9,23.4c0,0.3-0.4,0.7-0.6,1l-30.5,48l-30.5-48c-0.2-0.4-0.4-0.7-0.6-1.1c-5.1-6.7-7.8-14.9-7.8-23.3
		c0-10.3,4.1-20.3,11.4-27.6C194.1,134.7,204,130.6,214.3,130.6L214.3,130.6z"/>
	<linearGradient id="SVGID_2_" gradientUnits="userSpaceOnUse" x1="188.5" y1="169.55" x2="240.2" y2="169.55">
		<stop  offset="0" style="stop-color:#4886F1"/>
		<stop  offset="1" style="stop-color:#40C1F6"/>
	</linearGradient>
	<path class="st1" d="M214.3,195.4c6.9,0,13.4-2.7,18.3-7.6c4.8-4.8,7.6-11.4,7.6-18.3c0-6.9-2.7-13.4-7.6-18.3
		c-4.9-4.8-11.4-7.5-18.3-7.5c-6.9,0-13.4,2.8-18.3,7.6c-4.8,4.9-7.5,11.4-7.5,18.3c0,6.8,2.8,13.4,7.6,18.2
		C200.9,192.7,207.5,195.4,214.3,195.4L214.3,195.4z M214.3,156.5c3.5,0,6.8,1.4,9.2,3.8c2.4,2.4,3.8,5.8,3.8,9.2
		c0,3.5-1.4,6.8-3.8,9.2c-2.4,2.5-5.7,3.8-9.2,3.9c-3.5,0-6.8-1.3-9.2-3.8c-2.5-2.4-3.9-5.7-3.9-9.2s1.3-6.8,3.8-9.3
		C207.5,157.9,210.8,156.5,214.3,156.5L214.3,156.5z"/>
	<linearGradient id="SVGID_3_" gradientUnits="userSpaceOnUse" x1="158.4" y1="265.35" x2="270.8" y2="265.35">
		<stop  offset="0" style="stop-color:#4886F1"/>
		<stop  offset="1" style="stop-color:#40C1F6"/>
	</linearGradient>
	<path class="st2" d="M237.6,246.9c-3.3,0-6.1,2.6-6.4,5.9c-0.3,3.3,2.1,6.3,5.4,6.9c13.7,1.1,18.7,3.6,20.4,4.7
		c-4.6,2.7-19.4,6.6-42.5,6.6s-38-3.9-42.5-6.6c1.7-1.2,6.7-3.6,20-4.7c1.7-0.1,3.2-0.9,4.3-2.2c1.1-1.3,1.6-3,1.5-4.7
		c-0.3-3.5-3.4-6.1-6.9-5.8c-8,0.7-32.5,2.8-32.5,18.1c0,17.8,46.8,18.7,56.2,18.7s56.2-0.9,56.2-18.7
		C270.5,249.7,245.8,247.6,237.6,246.9L237.6,246.9z"/>
	<linearGradient id="SVGID_4_" gradientUnits="userSpaceOnUse" x1="72.9565" y1="255.8996" x2="439.1159" y2="255.8996">
		<stop  offset="0" style="stop-color:#4886F1"/>
		<stop  offset="1" style="stop-color:#40C1F6"/>
	</linearGradient>
	<path class="st3" d="M434.3,400.3L362,323.7l0,0c-3.1-3.3-7.5-5.2-12-5.2c-5.6,0.1-11,2.5-14.9,6.6l-1,1l-16.6-17.5
		c26.5-26.9,41.1-63.3,40.8-101c-0.3-37.7-15.7-73.8-42.6-100.3s-63.3-41.1-101-40.8c-37.7,0.3-73.8,15.7-100.3,42.6
		c-25.7,25.9-40.5,60.6-41.4,97s12.2,71.8,36.6,98.9c24.4,27,58.3,43.7,94.6,46.5s72.4-8.4,100.7-31.3l17.5,18.4l0,0
		c-2.9,3.5-4.4,8-4.3,12.5c0.1,4.6,1.7,8.9,4.7,12.4l72.3,76.6c3.2,3.4,7.6,5.3,12.3,5.2c5.6-0.1,11-2.5,14.9-6.6l10.6-11.1
		c3.7-3.5,5.9-8.3,6.2-13.4C439.3,409.2,437.6,404.2,434.3,400.3L434.3,400.3z M303.6,298.4c-20.5,20.5-47.5,33.2-76.3,36.1
		c-28.8,2.8-57.8-4.4-81.8-20.5c-24.1-16.1-41.8-40.1-50.3-67.8c-8.4-27.7-6.9-57.5,4.1-84.3S130.5,113,156,99.4
		c25.6-13.7,55.1-18,83.5-12.4c28.4,5.7,54,21,72.4,43.4s28.4,50.5,28.4,79.4C340.3,243,327.1,274.9,303.6,298.4L303.6,298.4z
		 M420.6,415.9L410,427l0,0c-0.7,0.8-1.6,1.3-2.6,1.5L335,351.9c-0.3-1.5,0.3-3,1.4-4l10.7-11.1l0,0c0.7-0.8,1.6-1.3,2.6-1.5
		L422,412C422.3,413.4,421.8,414.9,420.6,415.9L420.6,415.9z"/>
</g>
</svg>
