<?xml version="1.0" encoding="utf-8"?>
<!-- Generator: Adobe Illustrator 24.0.1, SVG Export Plug-In . SVG Version: 6.00 Build 0)  -->
<svg version="1.1" id="Layer_1" xmlns="http://www.w3.org/2000/svg" xmlns:xlink="http://www.w3.org/1999/xlink" x="0px" y="0px"
	 viewBox="0 0 208.89 185.44" style="enable-background:new 0 0 208.89 185.44;" xml:space="preserve">
<style type="text/css">
	.st0{fill:url(#SVGID_1_);}
	.st1{fill:url(#SVGID_2_);}
</style>
<g>
	<linearGradient id="SVGID_1_" gradientUnits="userSpaceOnUse" x1="79.3933" y1="6.4898" x2="93.06" y2="217.1564">
		<stop  offset="0" style="stop-color:#3270DC"/>
		<stop  offset="1" style="stop-color:#40C1F6"/>
	</linearGradient>
	<path class="st0" d="M137.48,113.57c6.95-10.28,11.02-22.74,11.02-36.07c0-8.88-1.8-17.39-5.07-25.11
		c-4.9-11.59-13.07-21.42-23.36-28.37C109.78,17.07,97.33,13,84,13c-8.88,0-17.39,1.8-25.11,5.07
		c-11.59,4.9-21.42,13.07-28.37,23.36C23.57,51.72,19.5,64.17,19.5,77.5c0,8.88,1.8,17.39,5.07,25.11
		c4.9,11.59,13.07,21.42,23.36,28.37C58.22,137.93,70.67,142,84,142c8.88,0,17.39-1.8,25.11-5.07
		C120.69,132.03,130.53,123.86,137.48,113.57z M110.55,116.89C102.96,122.02,93.87,125,84,125c-6.58,0-12.81-1.33-18.49-3.73
		c-8.51-3.6-15.78-9.63-20.91-17.22c-5.12-7.59-8.1-16.68-8.11-26.55c0-6.58,1.33-12.81,3.73-18.49c3.6-8.51,9.63-15.78,17.22-20.91
		C65.04,32.98,74.13,30,84,30c6.58,0,12.81,1.33,18.49,3.73c8.51,3.6,15.78,9.63,20.91,17.22c5.12,7.59,8.1,16.68,8.11,26.55
		c0,6.58-1.33,12.81-3.73,18.49C124.17,104.5,118.14,111.77,110.55,116.89z"/>
	<linearGradient id="SVGID_2_" gradientUnits="userSpaceOnUse" x1="146.1097" y1="2.1617" x2="159.7764" y2="212.8283">
		<stop  offset="0" style="stop-color:#3270DC"/>
		<stop  offset="1" style="stop-color:#40C1F6"/>
	</linearGradient>
	<path class="st1" d="M183.25,157.46l-40.19-40.19l-18.62,18.62l40.19,40.19c5.14,5.14,13.48,5.14,18.62,0
		S188.39,162.6,183.25,157.46z"/>
</g>
</svg>
