<?xml version="1.0" encoding="utf-8"?>
<!-- Generator: Adobe Illustrator 24.0.0, SVG Export Plug-In . SVG Version: 6.00 Build 0)  -->
<svg version="1.1" id="Layer_1" xmlns="http://www.w3.org/2000/svg" xmlns:xlink="http://www.w3.org/1999/xlink" x="0px" y="0px"
	 viewBox="0 0 1024 1024" style="enable-background:new 0 0 1024 1024;" xml:space="preserve">
<style type="text/css">
	.st0{fill:url(#SVGID_1_);}
	.st1{fill:url(#SVGID_2_);}
	.st2{fill:url(#SVGID_3_);}
</style>
<linearGradient id="SVGID_1_" gradientUnits="userSpaceOnUse" x1="278.0345" y1="344.4839" x2="536.727" y2="344.4839">
	<stop  offset="0" style="stop-color:#4886F1"/>
	<stop  offset="1" style="stop-color:#40C1F6"/>
</linearGradient>
<path class="st0" d="M536,282.7c-3.3-31.8-18.3-61.3-42-82.8c-23.8-21.5-54.6-33.3-86.6-33.3c-32,0-62.8,11.8-86.6,33.3
	c-23.8,21.5-38.8,50.8-42,82.8c-3.3,31.8,5.3,63.8,24,89.6l0.8,0.3l90.6,142.6c3,4.5,8,7.3,13.5,7.3s10.5-2.8,13.5-7.3l90.8-142.9
	C530.7,346.5,539.5,314.5,536,282.7z M453.4,341.5c-12.3,12.3-28.5,19-45.8,19c-17,0-33.5-6.8-45.5-19c-12-12-19-28.5-19-45.5
	c0-17.3,6.8-33.5,18.8-45.8c12.3-12,28.5-19,45.8-19s33.5,6.8,45.8,18.8c12.3,12.3,19,28.5,19,45.8
	C472.4,313,465.4,329.5,453.4,341.5z"/>
<linearGradient id="SVGID_2_" gradientUnits="userSpaceOnUse" x1="244.7915" y1="490.4509" x2="571.8936" y2="490.4509" gradientTransform="matrix(1 0 0 -1 0 1026)">
	<stop  offset="0" style="stop-color:#4886F1"/>
	<stop  offset="1" style="stop-color:#40C1F6"/>
</linearGradient>
<path class="st1" d="M475.3,481.9c-9.6,0-17.8,7.6-18.6,17.2c-0.9,9.6,6.1,18.3,15.7,20.1c39.9,3.2,54.4,10.5,59.4,13.7
	c-13.4,7.9-56.5,19.2-123.7,19.2s-110.6-11.3-123.7-19.2c4.9-3.5,19.5-10.5,58.2-13.7c4.9-0.3,9.3-2.6,12.5-6.4
	c3.2-3.8,4.7-8.7,4.4-13.7c-0.9-10.2-9.9-17.8-20.1-16.9c-23.3,2-94.6,8.1-94.6,52.7c0,51.8,136.2,54.4,163.6,54.4
	s163.6-2.6,163.6-54.4C571,490,499.1,483.9,475.3,481.9L475.3,481.9z"/>
<linearGradient id="SVGID_3_" gradientUnits="userSpaceOnUse" x1="53.8808" y1="511.8996" x2="970.1915" y2="511.8996">
	<stop  offset="0" style="stop-color:#4886F1"/>
	<stop  offset="1" style="stop-color:#40C1F6"/>
</linearGradient>
<path class="st2" d="M958.1,873.3L777.2,681.6c-7.8-8.3-18.8-13-30-13c-14,0.3-27.5,6.3-37.3,16.5l-2.5,2.5l-41.5-43.8
	C732.2,576.5,768.7,485.4,768,391c-0.8-94.3-39.3-184.7-106.6-251S502.9,37.2,408.6,37.9s-184.7,39.3-251,106.6
	C93.3,209.3,56.2,296.2,54,387.3c-2.3,91.1,30.5,179.7,91.6,247.5c61.1,67.6,145.9,109.4,236.7,116.4s181.2-21,252-78.3l43.8,46
	c-7.3,8.8-11,20-10.8,31.3c0.3,11.5,4.3,22.3,11.8,31L860,972.9c8,8.5,19,13.3,30.8,13c14-0.3,27.5-6.3,37.3-16.5l26.5-27.8
	c9.3-8.8,14.8-20.8,15.5-33.5C970.7,895.5,966.4,883,958.1,873.3z M608.1,595.3c-46,46-106.5,74.5-171.1,81
	c-64.6,6.3-129.6-9.9-183.5-46c-54.1-36.1-93.8-89.9-112.8-152.1c-18.8-62.1-15.5-129,9.2-189.1c24.7-60.1,70-109.7,127.2-140.2
	c57.4-30.7,123.6-40.4,187.3-27.8c63.7,12.8,121.1,47.1,162.4,97.3c41.3,50.2,63.7,113.3,63.7,178.1
	C690.4,471,660.8,542.6,608.1,595.3z M900.6,893.5l-20.7,21.7c-1.4,1.6-3.1,2.5-5.1,2.9L733.7,768.7c-0.6-2.9,0.6-5.9,2.7-7.8
	l20.9-21.7c1.4-1.6,3.1-2.5,5.1-2.9l141,149.6C903.9,888.7,903,891.6,900.6,893.5z"/>
</svg>
