<svg xmlns="http://www.w3.org/2000/svg" width="28.019" height="27.836" viewBox="0 0 28.019 27.836">
  <path id="Settings" d="M17.11,13.929a4.043,4.043,0,1,0,2.9,1.175,4.07,4.07,0,0,0-2.9-1.175Zm0,6.511A2.442,2.442,0,1,1,19.568,18,2.512,2.512,0,0,1,17.11,20.44Zm11.961-5.535H27.6c-.164,0-.328,0-.328-.163a6.774,6.774,0,0,0-.655-1.628.224.224,0,0,1,0-.326l1.147-1.14a1.865,1.865,0,0,0,0-2.767L26.122,7.255a2.227,2.227,0,0,0-2.786,0L22.19,8.394h-.328c-.492-.163-1.147-.488-1.639-.651,0-.163-.164-.163-.164-.326V5.953A1.987,1.987,0,0,0,18.093,4h-2.13A1.985,1.985,0,0,0,14,5.953V7.418c0,.163,0,.326-.164.326a6.878,6.878,0,0,0-1.639.651c-.164.163-.164.163-.328,0L10.72,7.256a2.227,2.227,0,0,0-2.786,0L6.3,8.884a1.865,1.865,0,0,0,0,2.767L7.443,12.79v.325a16.768,16.768,0,0,0-.655,1.628c-.164,0-.164.163-.328.163H4.984a1.985,1.985,0,0,0-1.965,1.953v2.116a1.986,1.986,0,0,0,1.965,1.953H6.46c.164,0,.328,0,.328.163a6.78,6.78,0,0,0,.655,1.628.225.225,0,0,1,0,.326L6.3,24.184a1.865,1.865,0,0,0,0,2.767l1.639,1.628a2.227,2.227,0,0,0,2.786,0l1.147-1.14h.328a10.064,10.064,0,0,0,1.965.814v1.628a1.986,1.986,0,0,0,1.965,1.953h2.131a1.853,1.853,0,0,0,1.8-1.953V28.417c0-.163,0-.326.164-.326a6.866,6.866,0,0,0,1.639-.651c.164-.163.164-.163.328,0l1.147,1.139a2.227,2.227,0,0,0,2.786,0l1.639-1.628a1.865,1.865,0,0,0,0-2.767l-1.147-1.139V22.72a16.814,16.814,0,0,0,.655-1.628c.164,0,.164-.163.328-.163h1.475a1.985,1.985,0,0,0,1.967-1.953V16.859a1.985,1.985,0,0,0-1.967-1.953Zm.492,4.07a.351.351,0,0,1-.328.326H27.761a1.916,1.916,0,0,0-1.8,1.3c-.164.488-.492.977-.655,1.465a1.961,1.961,0,0,0,.328,2.279l1.147,1.139c.164,0,.164.163,0,.326L25.139,27.44c0,.163-.164.163-.328,0L23.664,26.3a1.992,1.992,0,0,0-2.294-.326,5.836,5.836,0,0,1-1.475.651,1.765,1.765,0,0,0-1.311,1.79v1.466a.35.35,0,0,1-.328.326h-2.13a.35.35,0,0,1-.328-.326V27.6a1.083,1.083,0,0,0-.655-.814,11.415,11.415,0,0,1-2.13-.814,2.089,2.089,0,0,0-.983-.163,1.868,1.868,0,0,0-1.311.488L9.573,27.44c0,.163-.164.163-.328,0L7.607,25.812c-.164,0-.164-.163,0-.326l1.147-1.139a1.96,1.96,0,0,0,.328-2.279A5.765,5.765,0,0,1,8.425,20.6a1.775,1.775,0,0,0-1.8-1.3H5.148a.35.35,0,0,1-.328-.326V16.859a.351.351,0,0,1,.328-.326H6.623a1.916,1.916,0,0,0,1.8-1.3c.164-.488.492-.977.655-1.465a1.96,1.96,0,0,0-.328-2.279L7.606,10.348c-.164,0-.164-.163,0-.326L9.245,8.395c0-.163.164-.163.328,0l1.147,1.139a1.993,1.993,0,0,0,2.294.325,5.839,5.839,0,0,1,1.475-.651A1.766,1.766,0,0,0,15.8,7.418V5.953a.35.35,0,0,1,.328-.326h2.13a.35.35,0,0,1,.327.326V7.418a1.9,1.9,0,0,0,1.311,1.79c.492.163.983.488,1.475.651a2.314,2.314,0,0,0,2.294-.326l1.148-1.139c0-.163.164-.163.328,0l1.639,1.628c.164,0,.164.163,0,.326L25.63,11.487a1.96,1.96,0,0,0-.328,2.279,5.76,5.76,0,0,1,.655,1.465,1.774,1.774,0,0,0,1.8,1.3h1.475a.351.351,0,0,1,.328.326v2.117h0Z" transform="translate(-3.019 -4)" fill="#fff" fill-rule="evenodd"/>
</svg>
