<svg id="cancel" xmlns="http://www.w3.org/2000/svg" xmlns:xlink="http://www.w3.org/1999/xlink" width="262.982" height="262.982" viewBox="0 0 262.982 262.982">
  <defs>
    <linearGradient id="linear-gradient" x1="0.5" x2="0.5" y2="1" gradientUnits="objectBoundingBox">
      <stop offset="0" stop-color="#3270dc"/>
      <stop offset="1" stop-color="#40c1f6"/>
    </linearGradient>
  </defs>
  <g id="Group_3" data-name="Group 3" transform="translate(76.133 76.133)">
    <g id="Group_2" data-name="Group 2">
      <path id="Path_4" data-name="Path 4" d="M234.236,142.192,215.564,123.52l-36.686,36.817L142.192,123.52,123.52,142.192l36.817,36.686L123.52,215.564l18.672,18.672,36.686-36.818,36.686,36.818,18.672-18.672-36.818-36.686Z" transform="translate(-123.52 -123.52)" fill="url(#linear-gradient)"/>
    </g>
  </g>
  <g id="Group_5" data-name="Group 5">
    <g id="Group_4" data-name="Group 4">
      <path id="Path_5" data-name="Path 5" d="M131.491,0A131.491,131.491,0,1,0,262.982,131.491,131.491,131.491,0,0,0,131.491,0Zm0,239.182A107.691,107.691,0,1,1,239.182,131.491,107.691,107.691,0,0,1,131.491,239.182Z" fill="url(#linear-gradient)"/>
    </g>
  </g>
</svg>
