<svg xmlns="http://www.w3.org/2000/svg" xmlns:xlink="http://www.w3.org/1999/xlink" width="18.011" height="19.337" viewBox="0 0 18.011 19.337">
  <defs>
    <linearGradient id="linear-gradient" x1="0.5" x2="0.5" y2="1" gradientUnits="objectBoundingBox">
      <stop offset="0" stop-color="#4886f1"/>
      <stop offset="1" stop-color="#40c1f6"/>
    </linearGradient>
  </defs>
  <path id="Sketch" d="M25.865,5.724,22.294,2.15a.512.512,0,0,0-.724,0l-8.879,8.887a.513.513,0,0,0-.14.263l-.885,4.46a.512.512,0,0,0,.6.6l4.456-.886a.512.512,0,0,0,.262-.14l8.879-8.887A.513.513,0,0,0,25.865,5.724ZM13.026,14.166l.462-2.331,2.7,2.7L13.859,15ZM21.4,17.51c-4.9-2.051-8.082,1.341-9.034,1.856-1.217.659-2.93,1.432-3.329.093-.24-.808,1.06-1.672,1.92-1.941.628-.2.36-1.186-.272-.988-1.336.418-2.931,1.545-2.651,3.131.208,1.179,1.684,2.254,4.53.759,2.068-1.086,3.474-3.336,7.83-2.171a4.318,4.318,0,0,1,3.083,2.736c.216.619,1.205.353.987-.272A5.287,5.287,0,0,0,21.4,17.51Z" transform="translate(-8.004 -2)" fill-rule="evenodd" fill="url(#linear-gradient)"/>
</svg>
