<svg xmlns="http://www.w3.org/2000/svg" xmlns:xlink="http://www.w3.org/1999/xlink" width="241.971" height="241.992" viewBox="0 0 241.971 241.992">
  <defs>
    <linearGradient id="linear-gradient" x1="0.5" x2="0.5" y2="1" gradientUnits="objectBoundingBox">
      <stop offset="0" stop-color="#3270dc"/>
      <stop offset="1" stop-color="#40c1f6"/>
    </linearGradient>
  </defs>
  <g id="edit" transform="translate(-108.19 -0.261)">
    <path id="Path_2" data-name="Path 2" d="M329.625,11.133a37.121,37.121,0,0,0-52.5,0L129.961,158.3a8.247,8.247,0,0,0-2.117,3.632L108.491,231.8a8.247,8.247,0,0,0,10.15,10.153L188.51,222.6a8.247,8.247,0,0,0,3.632-2.117L339.3,73.31a37.161,37.161,0,0,0,0-52.5ZM147.935,163.662,268.38,43.214l38.844,38.844L186.776,202.507Zm-7.759,15.57,31.034,31.037-42.927,11.893ZM327.64,61.645l-8.748,8.748L280.044,31.546,288.8,22.8a20.621,20.621,0,0,1,29.161,0l9.683,9.68A20.652,20.652,0,0,1,327.64,61.645Zm0,0" fill="url(#linear-gradient)"/>
  </g>
</svg>
