<?xml version="1.0" encoding="utf-8"?>
<!-- Generator: Adobe Illustrator 24.0.0, SVG Export Plug-In . SVG Version: 6.00 Build 0)  -->
<svg version="1.1" id="Layer_1" xmlns="http://www.w3.org/2000/svg" xmlns:xlink="http://www.w3.org/1999/xlink" x="0px" y="0px"
	 viewBox="0 0 1024 1024" style="enable-background:new 0 0 1024 1024;" xml:space="preserve">
<style type="text/css">
	.st0{fill-rule:evenodd;clip-rule:evenodd;fill:url(#SVGID_1_);}
</style>
<g>
	<linearGradient id="SVGID_1_" gradientUnits="userSpaceOnUse" x1="100.9175" y1="512" x2="923.0825" y2="512">
		<stop  offset="0" style="stop-color:#4886F1"/>
		<stop  offset="1" style="stop-color:#40C1F6"/>
	</linearGradient>
	<path class="st0" d="M831.3,342.6l-42.4,580c-3.1,42.2-21.3,73-43.1,73H272.1c-21.8,0-40-30.8-43.1-73l-42.4-580L831.3,342.6z
		 M647.4,115.1V73.3c0-24.7-20.2-44.9-44.9-44.9l-181.1,0c-24.7,0-44.9,20.2-44.9,44.9v41.8L647.4,115.1z M165.3,164.5h693.5
		c35.4,0,64.3,29,64.3,64.3s-29,64.3-64.3,64.3l-693.5,0c-35.4,0-64.3-29-64.3-64.3C100.9,193.5,129.9,164.5,165.3,164.5
		L165.3,164.5z M662.7,433.9L636,851.8c-0.9,13.6,9.5,25.3,23,26.1c13.6,0.9,25.3-9.5,26.1-23l26.6-417.9c0.9-13.6-9.5-25.3-23-26.1
		C675.2,409.9,663.5,420.3,662.7,433.9L662.7,433.9z M484.3,435.1v418.6c0,13.6,11.1,24.7,24.7,24.7c13.6,0,24.7-11.1,24.7-24.7
		V435.1c0-13.6-11.1-24.7-24.7-24.7C495.3,410.4,484.3,421.4,484.3,435.1z M381.9,851.8l-26.6-417.9c-0.9-13.6-12.6-23.9-26.1-23
		c-13.6,0.9-23.9,12.6-23,26.1l26.6,417.9c0.9,13.6,12.6,23.9,26.1,23C372.4,877,382.7,865.3,381.9,851.8z"/>
</g>
</svg>
