<svg xmlns="http://www.w3.org/2000/svg" xmlns:xlink="http://www.w3.org/1999/xlink" width="69.858" height="69.857" viewBox="0 0 69.858 69.857">
  <defs>
    <linearGradient id="linear-gradient" x1="1" x2="0" y2="1" gradientUnits="objectBoundingBox">
      <stop offset="0" stop-color="#4886f1"/>
      <stop offset="1" stop-color="#40c1f6"/>
    </linearGradient>
    <filter id="Ellipse_51" x="0" y="0" width="69.858" height="69.857" filterUnits="userSpaceOnUse">
      <feOffset dy="3" input="SourceAlpha"/>
      <feGaussianBlur stdDeviation="2.5" result="blur"/>
      <feFlood flood-opacity="0.149"/>
      <feComposite operator="in" in2="blur"/>
      <feComposite in="SourceGraphic"/>
    </filter>
  </defs>
  <g id="Work_orders" data-name="Work orders" transform="translate(-54.5 -1277.817)">
    <g transform="matrix(1, 0, 0, 1, 54.5, 1277.82)" filter="url(#Ellipse_51)">
      <circle id="Ellipse_51-2" data-name="Ellipse 51" cx="27.429" cy="27.429" r="27.429" transform="translate(7.5 4.5)" fill="url(#linear-gradient)"/>
    </g>
    <g id="Survey_mode" data-name="Survey mode" transform="translate(-191.592 908.606)">
      <g id="writing" transform="translate(269.35 386.796)">
        <g id="Group_6" data-name="Group 6" transform="translate(0)">
          <g id="Group_5" data-name="Group 5" transform="translate(0)">
            <path id="Path_644" data-name="Path 644" d="M109.561,181.545a1.1,1.1,0,0,0-1.1-1.1H97.149a1.1,1.1,0,1,0,0,2.2h11.313A1.1,1.1,0,0,0,109.561,181.545Z" transform="translate(-91.664 -169.729)" fill="#fff"/>
            <path id="Path_645" data-name="Path 645" d="M97.149,252.626a1.1,1.1,0,1,0,0,2.2h6.871a1.1,1.1,0,1,0,0-2.2Z" transform="translate(-91.664 -237.621)" fill="#fff"/>
            <path id="Path_646" data-name="Path 646" d="M32.039,25.343H28.366a2.175,2.175,0,0,1-2.2-2.148V4.3a2.175,2.175,0,0,1,2.2-2.148h13.5a2.175,2.175,0,0,1,2.2,2.148v6.6a1.1,1.1,0,0,0,2.2,0V4.3A4.35,4.35,0,0,0,41.87,0h-13.5a4.35,4.35,0,0,0-4.393,4.3V23.2a4.35,4.35,0,0,0,4.393,4.3h3.673a1.074,1.074,0,1,0,0-2.148Z" transform="translate(-23.972)" fill="#fff"/>
            <path id="Path_647" data-name="Path 647" d="M231.981,246.393a3.3,3.3,0,0,0-4.659,0l-6.03,6.017a1.1,1.1,0,0,0-.275.458l-1.313,4.323a1.1,1.1,0,0,0,1.344,1.378l4.433-1.228a1.1,1.1,0,0,0,.483-.281l6.018-6.006A3.3,3.3,0,0,0,231.981,246.393Zm-7.365,8.908-2.23.618.653-2.149,4.069-4.06,1.554,1.554Zm5.813-5.8-.213.212-1.553-1.553.212-.212a1.1,1.1,0,0,1,1.554,1.553Z" transform="translate(-207.744 -231.118)" fill="#fff"/>
            <path id="Path_648" data-name="Path 648" d="M108.463,108.268H97.149a1.1,1.1,0,0,0,0,2.2h11.313a1.1,1.1,0,0,0,0-2.2Z" transform="translate(-91.664 -101.838)" fill="#fff"/>
          </g>
        </g>
      </g>
    </g>
  </g>
</svg>
